<?xml version="1.0" standalone="no"?>
<!DOCTYPE svg PUBLIC "-//W3C//DTD SVG 1.1//EN" "http://www.w3.org/Graphics/SVG/1.1/DTD/svg11.dtd" >
<svg xmlns="http://www.w3.org/2000/svg" xmlns:xlink="http://www.w3.org/1999/xlink" version="1.1">
<metadata></metadata>
<defs>
<font id="surrounding__.bold" horiz-adv-x="1024" >
<font-face units-per-em="2048" ascent="1638" descent="-410" />
<missing-glyph horiz-adv-x="614" />
<glyph horiz-adv-x="0" />
<glyph horiz-adv-x="682" />
<glyph unicode=" "  horiz-adv-x="614" />
<glyph unicode="&#x09;" horiz-adv-x="614" />
<glyph unicode="&#xa0;" horiz-adv-x="614" />
<glyph unicode="!" horiz-adv-x="325" d="M82 12v138q0 12 12 12h137q13 0 13 -12v-138q0 -12 -13 -12h-137q-12 0 -12 12zM82 268v998q0 12 12 12h137q13 0 13 -12v-998q0 -12 -13 -12h-137q-12 0 -12 12z" />
<glyph unicode="&#x22;" horiz-adv-x="573" d="M57 995q0 3 16.5 38t16.5 81q0 26 -6 60v-3q-2 2 -2 25q0 35 22.5 58.5t57.5 23.5q36 0 59 -23t23 -59q0 -82 -47.5 -151.5t-102.5 -69.5q-37 0 -37 20zM254 995q0 3 16.5 38t16.5 81q0 26 -6 60v-3q-2 2 -2 25q0 35 23 58.5t56 23.5q36 0 59 -23t23 -59 q0 -82 -47 -151.5t-102 -69.5q-37 0 -37 20z" />
<glyph unicode="#" horiz-adv-x="815" d="M82 442v140q0 12 12 12h103v90h-103q-12 0 -12 12v140q0 12 12 12h103v104q0 13 12 13h139q12 0 12 -13v-104h93v104q0 13 12 13h139q10 0 10 -13v-104h107q12 0 12 -12v-140q0 -12 -12 -12h-107v-90h107q12 0 12 -12v-140q0 -12 -12 -12h-107v-104q0 -11 -10 -11h-139 q-12 0 -12 11v104h-93v-104q0 -11 -12 -11h-139q-12 0 -12 11v104h-103q-12 0 -12 12zM360 594h93v90h-93v-90z" />
<glyph unicode="$" horiz-adv-x="763" d="M82 825q0 81 58 145.5t161 88.5v209q0 12 12 12l140 -2q10 0 10 -12v-205q63 -14 120 -44.5t91 -70.5v-4q0 -10 -2 -12l-105 -96q-5 -5 -8 -5q-2 0 -12.5 10t-25 23t-25.5 19q-5 3 -16 6t-17 6v-188q1 0 20 -6.5t33 -14.5h-2q80 -30 124 -99t44 -134q0 -72 -53.5 -139.5 t-165.5 -90.5v-207q0 -12 -10 -12h-140q-12 0 -12 12v203q-58 10 -114.5 42t-94.5 71q-4 4 -4 8t4 8l101 94q4 4 8 4t28.5 -21.5t32.5 -25.5q8 -3 20 -6.5t19 -5.5v188q-108 41 -163.5 106t-55.5 146zM244 825q0 -34 39 -63h-2q5 -4 20 -10v139h-6q-51 -26 -51 -66zM301 891 q3 0 7 2t7 2l-14 12v-16zM451 383l12 -12v16zM463 387q3 3 20 13t26 23.5t9 37.5q0 28 -37 55h2q-6 3 -8 5t-4 3l-8 4v-141z" />
<glyph unicode="%" horiz-adv-x="1220" d="M82 12q3 -12 14 -12h185q6 0 10 4l846 1264q2 2 2 6q-3 14 -15 14h-184q-6 0 -10 -4l-846 -1264q-2 -2 -2 -8zM90 1032q0 108 75.5 184t180.5 76q106 0 183 -76t77 -184q0 -106 -77 -182t-183 -76q-104 0 -180 76t-76 182zM246 1032q0 -44 28.5 -73t71.5 -29t74 30t31 72 q0 44 -31 74.5t-74 30.5t-71.5 -29t-28.5 -76zM618 262q0 106 76 182t180 76q106 0 182.5 -76t76.5 -182q0 -108 -76.5 -184t-182.5 -76q-105 0 -180.5 76t-75.5 184zM774 262q0 -47 28.5 -75.5t71.5 -28.5t73 30t30 74q0 43 -30 73t-73 30t-71.5 -29.5t-28.5 -73.5z" />
<glyph unicode="&#x26;" horiz-adv-x="919" d="M82 330q0 89 44 164t114 118q-52 64 -52 144q0 94 66 159.5t160 65.5t159.5 -65.5t65.5 -159.5q0 -11 -12 -11h-140q-5 0 -12 18.5t-22 37t-39 18.5q-26 0 -44 -18.5t-18 -44.5q0 -25 18.5 -40t37 -21.5t18.5 -12.5v-170q0 -12 -12 -12q-70 0 -119 -48.5t-49 -119.5 q0 -69 49.5 -117.5t118.5 -48.5t117.5 48t48.5 116q0 12 10 12l209 39h4q7 0 10 -10l25 -138v-4q0 -6 -11 -10l-112 -22q-24 -59 -70.5 -103t-101.5 -65v2q-66 -29 -129 -29q-65 0 -131 29l2 -2q-89 31 -146 120t-57 181zM715 199l2 2v2q0 -1 -1 -2t-1 -2z" />
<glyph unicode="'" horiz-adv-x="376" d="M57 995q0 3 16.5 38t16.5 81q0 26 -6 60v-3q-2 2 -2 25q0 35 23.5 58.5t56.5 23.5q36 0 59 -23t23 -59q0 -82 -47.5 -151.5t-102.5 -69.5q-37 0 -37 20z" />
<glyph unicode="(" horiz-adv-x="421" d="M82 633q0 217 125 383q4 4 8 4q6 0 8 -2l113 -82l4 -18q-96 -130 -96 -285q0 -150 86 -275q2 -2 2 -8q0 -4 -4 -8l-111 -82q-2 -1 -4.5 -2t-3.5 -1.5t-2 -0.5q-5 0 -8 6q-117 160 -117 371z" />
<glyph unicode=")" horiz-adv-x="425" d="M82 926q0 7 6 10l111 82l8 4q7 0 10 -6q127 -164 127 -383q0 -211 -117 -371q-3 -6 -10 -6q-2 2 -8 4l-113 82q-6 3 -6 8q0 4 4 8q86 121 86 275q0 158 -94 285z" />
<glyph unicode="*" horiz-adv-x="800" d="M82 856q0 7 6 10l150 88q-33 14 -94.5 50.5t-61.5 44.5q0 4 2 6l70 123q4 4 10 4h6l149 -88v172q0 12 11 12h139q12 0 12 -12v-172q22 13 72.5 42t77.5 46h4l12 -4l70 -123q2 -2 2 -6q0 -8 -6 -11l-150 -84q11 -7 53.5 -30t72.5 -41.5t30 -26.5q0 -4 -2 -6l-70 -119 q-3 -6 -10 -6q-4 0 -6 2l-150 86v-174q0 -12 -12 -12h-139q-11 0 -11 12v172l-149 -84q-2 -2 -6 -2q-7 0 -10 6l-70 119q-2 2 -2 6z" />
<glyph unicode="+" horiz-adv-x="813" d="M82 569v140q0 12 12 12h232v231q0 13 10 13h139q12 0 12 -13v-231h232q12 0 12 -12v-140q0 -12 -12 -12h-232v-231q0 -11 -12 -11h-139q-10 0 -10 11v231h-232q-12 0 -12 12z" />
<glyph unicode="," horiz-adv-x="346" d="M57 -121q0 1 16.5 37.5t16.5 79.5q0 24 -6 59v-2q-2 2 -2 27q0 32 24 57t56 25q36 0 59 -24.5t23 -57.5q0 -85 -47 -153t-103 -68q-37 0 -37 20z" />
<glyph unicode="-" horiz-adv-x="978" d="M82 500v141q0 12 10 12h793q12 0 12 -12v-141q0 -13 -12 -13h-793q-10 0 -10 13z" />
<glyph unicode="." horiz-adv-x="325" d="M82 12v138q0 12 12 12h137q13 0 13 -12v-138q0 -12 -13 -12h-137q-12 0 -12 12z" />
<glyph unicode="/" horiz-adv-x="907" d="M82 8q2 2 4 8l563 1264q3 8 10 8h154q12 0 12 -8q0 -6 -2 -8l-561 -1264q-3 -8 -10 -8h-156q-14 0 -14 8z" />
<glyph unicode="0" horiz-adv-x="1452" d="M82 643q0 175 86.5 323.5t234.5 235t322 86.5q175 0 323.5 -86.5t235 -235t86.5 -323.5q0 -174 -86.5 -322t-235 -234.5t-323.5 -86.5q-174 0 -322 86.5t-234.5 234.5t-86.5 322zM246 643q0 -96 38.5 -185t102.5 -153t153 -102.5t185 -38.5q198 0 340.5 141.5 t142.5 337.5q0 96 -38.5 185t-103.5 154t-154.5 103.5t-186.5 38.5q-96 0 -185 -38.5t-153 -103.5t-102.5 -154t-38.5 -185z" />
<glyph unicode="1" horiz-adv-x="456" d="M82 1155q0 5 6 8l121 127q4 2 8 2h143q15 0 15 -12v-1268q0 -12 -15 -12h-141q-10 0 -10 12v1043l-10 -6q-5 -5 -9 -5q-1 0 -6 5l-96 98q-6 3 -6 8z" />
<glyph unicode="2" horiz-adv-x="763" d="M82 12v154l420 754l2 2q16 40 16 65q0 57 -40 96t-97 39t-97 -39t-40 -96q0 -12 -10 -12h-142q-12 0 -12 12q0 124 89 212.5t212 88.5q122 0 210.5 -89t88.5 -212q0 -74 -35 -139l-377 -682h402q10 0 10 -12v-142q0 -12 -10 -12h-578q-12 0 -12 12z" />
<glyph unicode="3" horiz-adv-x="1017" d="M82 328q0 8 10 8l152 -4q4 0 16.5 -18t27.5 -41t23 -31q78 -78 193 -78q108 0 188 77.5t80 190.5q0 112 -81.5 190t-186.5 78q-12 0 -12 13v141q0 12 12 12q54 0 89.5 36.5t35.5 90.5t-35.5 90.5t-89.5 36.5q-47 0 -81.5 -27t-45.5 -69q0 -10 -10 -10h-144q-14 0 -14 14 q17 114 99 187t196 73q121 0 207 -85.5t86 -209.5q0 -107 -68 -188q50 -26 99.5 -85t72.5 -120h-2q37 -78 37 -168q0 -131 -73.5 -240.5t-194.5 -158.5v2q-81 -35 -164 -35q-126 0 -234.5 69.5t-167.5 192.5q-20 41 -20 66z" />
<glyph unicode="4" horiz-adv-x="884" d="M82 717v143q0 4 4 8l416 416q4 4 8 4h139q13 0 13 -12v-408h129q12 0 12 -12v-139q0 -12 -12 -12h-129v-693q0 -12 -13 -12h-139q-12 0 -12 12v693h-404q-12 0 -12 12zM319 868h179v179z" />
<glyph unicode="5" horiz-adv-x="980" d="M82 231q0 8 6 11l125 69q2 2 6 2q2 0 12.5 -14l24 -32t20.5 -25q32 -36 83 -57t106 -21q115 0 192.5 79t77.5 189q0 115 -81.5 191.5t-188.5 76.5h-330q-12 0 -12 15l49 563q0 10 12 10h609q12 0 12 -12v-143q0 -13 -12 -13h-467q-4 -46 -10.5 -128.5t-10.5 -125.5h160 q93 0 168 -37v2q75 -31 136.5 -92t96.5 -139h-2q35 -87 35 -168q0 -127 -74 -238.5t-192 -160.5v2q-78 -35 -168 -35q-117 0 -219 60.5t-162 164.5q0 1 -1 3t-1 3z" />
<glyph unicode="6" horiz-adv-x="1030" d="M82 432q0 100 33 170l8 12q53 118 161 349t148 319q3 6 10 6h156q12 0 12 -10q0 -6 -2 -8l-192 -414q58 10 98 10q90 0 168 -35v3q121 -51 193.5 -160.5t72.5 -241.5q0 -141 -73.5 -243.5t-192.5 -155.5v2q-84 -35 -168 -35q-82 0 -166 35v-2q-121 49 -193.5 159.5 t-72.5 239.5zM246 432q0 -91 47.5 -153.5t118.5 -96.5l-2 2q41 -20 104 -20t107 20l-3 -2q57 31 89 62t57 84l-2 -2q22 55 22 106q0 47 -22 105l2 -2q-78 165 -250 165q-108 0 -188 -75t-80 -193z" />
<glyph unicode="7" horiz-adv-x="985" d="M82 1133v143q0 12 12 12h797q12 0 12 -12q0 -4 -2 -6l-639 -1264q-3 -6 -10 -6h-158q-10 0 -10 12v6l559 1102h-549q-12 0 -12 13z" />
<glyph unicode="8" horiz-adv-x="1030" d="M82 432q0 95 33 168h-2q27 63 75.5 119.5t102.5 85.5q-70 80 -70 188q0 125 84.5 210t210.5 85q119 0 206 -86t87 -209q0 -107 -70 -190q100 -51 174 -203h-2q37 -78 37 -168q0 -128 -73.5 -239t-194.5 -160v2q-81 -35 -164 -35t-161 31.5t-138.5 87t-97.5 137.5t-37 176 zM246 432q0 -107 75.5 -187.5t194.5 -80.5q107 0 187.5 75.5t80.5 192.5q0 112 -80 190t-188 78q-105 0 -187.5 -73t-82.5 -195zM385 993q0 -54 37.5 -90.5t93.5 -36.5q54 0 89.5 36.5t35.5 90.5t-35.5 90.5t-89.5 36.5q-56 0 -93.5 -36.5t-37.5 -90.5z" />
<glyph unicode="9" horiz-adv-x="1030" d="M82 856q0 141 73.5 243.5t192.5 155.5v-2q84 35 168 35q82 0 166 -35v2q121 -49 193.5 -159.5t72.5 -239.5q0 -100 -33 -170l-8 -12q-53 -118 -161 -349t-148 -319q-3 -6 -10 -6h-156q-12 0 -12 10q0 6 2 8l192 414q-58 -10 -98 -10q-90 0 -168 35v-2q-121 51 -193.5 160 t-72.5 241zM246 856q0 -46 22 -104l-2 2q78 -166 250 -166q108 0 188 75t80 193q0 91 -47.5 153.5t-118.5 96.5l3 -2q-41 20 -105 20q-62 0 -106 -20l2 2q-57 -31 -89 -61.5t-57 -83.5l2 2q-22 -55 -22 -107z" />
<glyph unicode=":" horiz-adv-x="346" d="M82 12v138q0 12 12 12h137q13 0 13 -12v-138q0 -12 -13 -12h-137q-12 0 -12 12zM82 268v138q0 12 12 12h137q13 0 13 -12v-138q0 -12 -13 -12h-137q-12 0 -12 12z" />
<glyph unicode=";" horiz-adv-x="346" d="M57 -121q0 1 16.5 37.5t16.5 79.5q0 24 -6 59v-2q-2 2 -2 27q0 32 24 57t56 25q36 0 59 -24.5t23 -57.5q0 -85 -47 -153t-103 -68q-37 0 -37 20zM82 268v138q0 12 12 12h137q13 0 13 -12v-138q0 -12 -13 -12h-137q-12 0 -12 12z" />
<glyph unicode="&#x3c;" horiz-adv-x="729" d="M82 639q0 4 4 8l442 445q4 4 9 4q2 -2 8 -4l98 -101l4 -8q0 -4 -4 -8l-338 -336l338 -336l4 -8q0 -4 -4 -8l-98 -99q-4 -4 -8 -4q-5 0 -9 4l-442 443q-4 4 -4 8z" />
<glyph unicode="=" horiz-adv-x="815" d="M82 442v140q0 12 12 12h627q12 0 12 -12v-140q0 -12 -12 -12h-627q-12 0 -12 12zM82 696v140q0 12 12 12h627q12 0 12 -12v-140q0 -12 -12 -12h-627q-12 0 -12 12z" />
<glyph unicode="&#x3e;" horiz-adv-x="729" d="M82 295q0 4 4 8l336 336l-336 336q-4 4 -4 8t4 8l96 101q4 4 8 4q3 -2 9 -4l444 -445l4 -8q0 -4 -4 -8l-444 -443q-4 -4 -9 -4q-4 0 -8 4l-96 99q-4 4 -4 8z" />
<glyph unicode="?" horiz-adv-x="827" d="M82 1063q0 1 1 3t1 3q114 211 317 211q137 0 240.5 -102.5t103.5 -241.5q0 -140 -102.5 -242t-241.5 -102q-30 0 -58 -21t-28 -65t29 -65t57 -21q19 0 37 15t30.5 29.5t20.5 14.5h5l127 -53q8 -3 8 -10v-6q-27 -48 -56.5 -80.5t-76.5 -53.5l2 3q-44 -23 -97 -23 q-113 0 -181 77t-68 173q0 61 18 96q34 64 77 98t77 39.5t78.5 11t68.5 15.5h-2q113 64 113 170q0 74 -53 127t-128 53q-78 0 -131 -53q-4 -4 -15 -21.5t-21 -32t-13 -14.5q-1 0 -2 1t-2 1l-127 56q-8 3 -8 10zM332 12v138q0 12 12 12h137q13 0 13 -12v-138q0 -12 -13 -12 h-137q-12 0 -12 12z" />
<glyph unicode="@" horiz-adv-x="1441" d="M82 641q0 130 50.5 248t136.5 204t204 136.5t248 50.5t248 -50.5t204 -136.5t136.5 -204t50.5 -248q0 -215 -126 -382t-325 -230h-6q-10 0 -10 10v237l-4 -2q-74 -26 -162 -26q-126 0 -219.5 70t-93.5 165q0 109 87.5 181.5t225.5 80.5q80 3 123 35l18 13q-50 86 -151 86 q-36 0 -77.5 -21t-64.5 -51q-3 -6 -10 -6q-4 0 -6 2l-102 74q-6 3 -6 10q0 19 46.5 56.5t90.5 60.5q25 13 117 24h18q65 0 121 -27q0 -2 2 -2h4q87 -54 139.5 -124t52.5 -173l-4 -417q160 144 160 356q0 195 -140.5 335t-336.5 140q-97 0 -185 -38t-151.5 -102t-101 -151.5 t-37.5 -183.5q0 -198 138.5 -336.5t336.5 -138.5q35 0 51 2q14 0 14 -12v-140q0 -7 -4.5 -10.5t-12.5 -4.5t-15 -1t-17.5 1t-15.5 1q-130 0 -248 50.5t-204 136.5t-136.5 204t-50.5 248zM563 487q5 -36 51 -64t107 -28q114 0 172 58v178q-32 -18 -94 -29t-111 -16.5t-87 -30 t-38 -68.5z" />
<glyph unicode="A" horiz-adv-x="1243" d="M20 8q3 2 5 8l585 1321q3 6 11 6q4 0 10 -6l590 -1321q2 -2 2 -8q0 -8 -13 -8h-155q-8 0 -11 8l-210 475h-426q-40 -96 -116 -265.5t-93 -209.5q-3 -8 -11 -8h-153q-15 0 -15 8zM485 647h275l-137 307q-18 -40 -65 -143t-73 -164z" />
<glyph unicode="B" horiz-adv-x="974" d="M82 12v1266q0 12 12 12h375q122 0 206.5 -85t84.5 -208q0 -108 -72 -190q94 -61 149.5 -158.5t55.5 -212.5q0 -181 -128.5 -308.5t-307.5 -127.5h-363q-12 0 -12 12zM248 166h209q110 0 190 80t80 190q0 112 -79.5 190.5t-190.5 78.5h-209v-539zM248 872h221q51 0 88 37 t37 90q0 51 -37 88t-88 37h-221v-252z" />
<glyph unicode="C" horiz-adv-x="1110" d="M82 645q0 174 86.5 322.5t235 235.5t323.5 87q59 0 162.5 -19.5t103.5 -43.5v-6l-55 -129q-3 -9 -12 -9q-1 0 -3 1t-3 1q-93 41 -193 41q-199 0 -340 -141t-141 -340t141 -340t340 -141q115 0 221 53h8q5 0 9 -4l63 -125v-10q0 -2 -4 -6q-135 -72 -297 -72 q-175 0 -323.5 86.5t-235 235t-86.5 323.5z" />
<glyph unicode="D" horiz-adv-x="1118" d="M82 12v1264q0 12 12 12h299q175 0 323 -86t234 -234t86 -323t-86 -323.5t-234 -235t-323 -86.5h-299q-12 0 -12 12zM248 166h145q97 0 185 37.5t152 101.5t102 153t38 187q0 96 -38 184.5t-102 152.5t-152.5 102t-184.5 38h-145v-956z" />
<glyph unicode="E" horiz-adv-x="987" d="M82 12v1266q0 12 12 12h799q12 0 12 -12v-143q0 -11 -12 -11h-647v-254h233q13 0 13 -12v-141q0 -12 -13 -12h-233v-541h647q12 0 12 -10v-142q0 -12 -12 -12h-799q-12 0 -12 12z" />
<glyph unicode="F" horiz-adv-x="987" d="M82 12v1266q0 12 12 12h799q12 0 12 -12v-143q0 -11 -12 -11h-647v-254h233q13 0 13 -12v-141q0 -12 -13 -12h-233v-693q0 -12 -13 -12h-139q-12 0 -12 12z" />
<glyph unicode="G" horiz-adv-x="1454" d="M82 645q0 174 86.5 322.5t235 235.5t323.5 87q58 0 162 -20t104 -43v-6l-55 -129q-3 -9 -12 -9q-1 0 -3 1t-3 1q-93 41 -193 41q-199 0 -340 -141t-141 -340t141 -340t340 -141q175 0 307 114t166 285h-358q-13 0 -13 12v140q0 12 13 12h514q16 0 16 -82 q0 -175 -87 -323.5t-235.5 -235t-322.5 -86.5q-175 0 -323.5 86.5t-235 235t-86.5 323.5z" />
<glyph unicode="H" horiz-adv-x="987" d="M82 12v1266q0 12 12 12h139q13 0 13 -12v-408h495v408q0 12 11 12h141q12 0 12 -12v-1266q0 -12 -12 -12h-141q-11 0 -11 12v693h-495v-693q0 -12 -13 -12h-139q-12 0 -12 12z" />
<glyph unicode="I" horiz-adv-x="471" d="M82 12v142q0 10 12 10h60v962h-60q-12 0 -12 11v141q0 12 12 12h283q12 0 12 -12v-141q0 -11 -12 -11h-60v-962h60q12 0 12 -10v-142q0 -12 -12 -12h-283q-12 0 -12 12z" />
<glyph unicode="J" horiz-adv-x="841" d="M82 283v4q0 10 12 10h148q9 0 12 -8q18 -55 61.5 -89t102.5 -34q73 0 125.5 51.5t52.5 124.5v936q0 12 10 12h142q12 0 12 -12v-936q0 -141 -100.5 -241.5t-241.5 -100.5q-125 0 -219.5 81t-116.5 202z" />
<glyph unicode="K" horiz-adv-x="1118" d="M82 12v1264q0 12 12 12h142q10 0 10 -12v-342l424 356l221 -2q12 0 12 -12q0 -6 -4 -10l-506 -424q106 -139 320.5 -410.5t320.5 -411.5q2 -2 2 -8q0 -12 -12 -12h-178q-6 0 -10 4l-572 731l-18 -18v-705q0 -12 -10 -12h-142q-12 0 -12 12z" />
<glyph unicode="L" horiz-adv-x="985" d="M82 12v1266q0 12 12 12h139q13 0 13 -12v-1114h645q12 0 12 -10v-142q0 -12 -12 -12h-797q-12 0 -12 12z" />
<glyph unicode="M" horiz-adv-x="1361" d="M82 12v1266q0 12 10 12h152q9 0 12 -8l424 -1046q70 176 211.5 523t212.5 523q3 8 12 8h154q10 0 10 -12v-1266q0 -12 -10 -12h-142q-12 0 -12 12v852q-58 -145 -174 -428.5t-174 -427.5q-3 -8 -12 -8h-150q-9 0 -12 8l-348 856v-852q0 -12 -13 -12h-141q-10 0 -10 12z " />
<glyph unicode="N" horiz-adv-x="1222" d="M82 12v1266q0 12 12 12h172q2 0 8 -6l703 -1026v1020q0 12 12 12h139q13 0 13 -12v-1266q0 -12 -13 -12h-170q-4 0 -10 6l-700 1028v-1022q0 -12 -12 -12h-142q-12 0 -12 12z" />
<glyph unicode="O" horiz-adv-x="1454" d="M82 645q0 174 86.5 322.5t235 235.5t323.5 87q130 0 249 -51.5t206 -138t138.5 -206t51.5 -249.5q0 -131 -51.5 -250.5t-138.5 -206t-206 -137.5t-249 -51q-175 0 -323.5 86.5t-235 235t-86.5 323.5zM246 645q0 -131 64 -241.5t174.5 -175t242.5 -64.5q198 0 338.5 141 t140.5 340q0 132 -64.5 242.5t-174.5 174.5t-240 64q-201 0 -341 -140t-140 -341z" />
<glyph unicode="P" horiz-adv-x="987" d="M82 14v1266q0 12 12 12h518q118 0 205.5 -87t87.5 -206q0 -122 -86.5 -207t-206.5 -85h-366v-693q0 -12 -13 -12h-139q-12 0 -12 12zM248 874h364q54 0 90.5 35.5t36.5 89.5t-36.5 90.5t-90.5 36.5h-364v-252z" />
<glyph unicode="Q" horiz-adv-x="1454" d="M82 645q0 174 86.5 322.5t235 235.5t323.5 87q174 0 322.5 -87t235.5 -235.5t87 -322.5q0 -253 -172 -438q7 -7 32.5 -29t42.5 -39t17 -24q0 -5 -4 -9l-102 -102q-4 -4 -8 -4q-5 0 -9 4l-94 96q-153 -100 -348 -100q-175 0 -323.5 86.5t-235 235t-86.5 323.5zM246 645 q0 -199 141 -340t340 -141q116 0 227 57l-49 47q-4 4 -4 8q0 5 4 9l101 100q4 4 8 4q2 -2 8 -4l61 -61q123 140 123 321q0 132 -64 242.5t-174 174.5t-241 64t-241.5 -64t-175 -174.5t-64.5 -242.5z" />
<glyph unicode="R" horiz-adv-x="1120" d="M82 14v1266q0 12 12 12h518q122 0 207.5 -86.5t85.5 -206.5q0 -123 -85 -207.5t-208 -84.5h-41q352 -515 465 -687q2 -2 2 -8q0 -10 -12 -10h-172q-4 0 -10 6l-473 699h-125v-693q0 -12 -10 -12h-142q-12 0 -12 12zM248 874h364q54 0 90.5 35.5t36.5 89.5t-36.5 90.5 t-90.5 36.5h-364v-252z" />
<glyph unicode="S" horiz-adv-x="1062" d="M82 436q0 13 12 13h139q7 0 11 -22.5t9 -54t11 -44.5q30 -67 96 -115.5t168 -48.5q135 0 211 68.5t76 189.5q0 39 -20 65v-2q-79 107 -291 107q-69 0 -127 9t-98.5 22t-73.5 35.5t-53 41.5t-34.5 48.5t-21.5 48t-10.5 47.5t-3.5 40v34v10q0 109 65 194t159.5 126.5 t197.5 41.5q122 0 235.5 -56t169.5 -155q41 -62 41 -166q0 -10 -12 -10h-141q-8 0 -12.5 17.5t-10 43t-12.5 37.5q-35 53 -110.5 90t-147.5 37q-38 0 -96 -14h2q-164 -49 -164 -209q0 -26 4 -44.5t19 -39.5t42 -34t76 -22t117 -9q113 0 205.5 -28t151 -75.5t89.5 -106.5 t31 -124q0 -83 -32 -159t-89.5 -134.5t-143.5 -93.5t-188 -35q-104 0 -191 39t-141.5 102t-84 139.5t-29.5 155.5z" />
<glyph unicode="T" horiz-adv-x="821" d="M82 1137v141q0 12 12 12h633q12 0 12 -12v-141q0 -11 -12 -11h-233v-1112q0 -12 -11 -12h-141q-12 0 -12 12v1112h-236q-12 0 -12 11z" />
<glyph unicode="U" horiz-adv-x="1118" d="M82 483v795q0 12 12 12h144q10 0 10 -12v-795q0 -131 91 -223t220 -92t220 92t91 223v795q0 12 13 12h141q12 0 12 -12v-795q0 -131 -64 -241.5t-174 -175t-239 -64.5t-239 64.5t-174 175t-64 241.5z" />
<glyph unicode="V" horiz-adv-x="1222" d="M82 1274v4q0 12 12 12h150q9 0 12 -8l354 -1034q61 175 179.5 517t179.5 517q3 8 12 8h147q13 0 13 -12v-4l-436 -1266q-3 -8 -11 -8h-164q-9 0 -12 8z" />
<glyph unicode="W" horiz-adv-x="1509" d="M82 1276v4q0 10 12 10h144q9 0 12 -10l199 -928q17 86 196 928q3 10 12 10h195q9 0 12 -10l199 -930q32 160 99 469t98 461q3 10 12 10h143q12 0 12 -10v-4l-268 -1266q-3 -10 -12 -10h-168q-9 0 -12 10l-211 998q-36 -165 -105.5 -499t-105.5 -499q-3 -10 -13 -10h-170 q-9 0 -12 10z" />
<glyph unicode="X" horiz-adv-x="1212" d="M82 10q0 6 2 8l424 627q-205 310 -424 627q-2 2 -2 6q0 12 12 12h172q2 0 4 -2l4 -4l332 -489q54 82 165.5 244.5t166.5 244.5q6 6 10 6h172q10 0 10 -12q0 -4 -2 -6l-423 -627q195 -282 423 -627q2 -2 2 -8q0 -10 -10 -10h-172q-4 0 -10 6l-332 492q-54 -82 -165.5 -246 t-166.5 -246l-4 -4q-2 -2 -4 -2h-172q-12 0 -12 10z" />
<glyph unicode="Y" horiz-adv-x="985" d="M82 1278q0 12 12 12h160q4 0 10 -6l228 -412q41 77 120 217t109 195q3 6 10 6h160q12 0 12 -12q0 -4 -2 -6l-328 -588v-670q0 -12 -12 -12h-139q-12 0 -12 12v670q-55 99 -163.5 294.5t-162.5 293.5q-2 2 -2 6z" />
<glyph unicode="Z" horiz-adv-x="1210" d="M82 12v150l823 962h-811q-12 0 -12 11v143q0 12 12 12h1024q10 0 10 -12v-150l-821 -962h811q10 0 10 -10v-144q0 -12 -10 -12h-1024q-12 0 -12 12z" />
<glyph unicode="[" horiz-adv-x="464" d="M82 12v1264q0 12 12 12h279q10 0 10 -12v-139q0 -13 -10 -13h-129v-960h129q10 0 10 -12v-140q0 -12 -10 -12h-279q-12 0 -12 12z" />
<glyph unicode="\" horiz-adv-x="907" d="M82 1280q0 8 14 8h154q7 0 10 -8l563 -1264q2 -2 2 -8q0 -8 -12 -8h-156q-7 0 -10 8l-561 1264q-4 4 -4 8z" />
<glyph unicode="]" horiz-adv-x="464" d="M82 12v140q0 12 12 12h127v962h-127q-12 0 -12 13v139q0 12 12 12h279q10 0 10 -12v-1266q0 -12 -10 -12h-279q-12 0 -12 12z" />
<glyph unicode="^" horiz-adv-x="575" d="M82 1106q0 2 4 6l195 164q4 4 8 4q2 -2 8 -4l192 -164q5 -5 5 -6t-2 -4t-3 -6l-88 -107q-6 -6 -10 -6q-2 0 -6 4l-96 82q-25 -25 -60.5 -55.5t-44.5 -30.5q-2 0 -8 6l-90 107q-4 4 -4 10z" />
<glyph unicode="_" horiz-adv-x="1351" d="M82 12v142q0 12 12 12h1163q13 0 13 -12v-142q0 -12 -13 -12h-1163q-12 0 -12 12z" />
<glyph unicode="`" horiz-adv-x="473" d="M82 1157q0 1 0.5 2t1.5 3.5t2 4.5l88 107q3 6 8 6q1 0 4.5 -1.5t6.5 -2.5l194 -164q4 -4 4 -6q0 -1 -0.5 -2t-1.5 -3.5t-2 -4.5l-88 -107q-6 -6 -10 -6q-2 0 -6 4l-195 162q-6 3 -6 8z" />
<glyph unicode="a" horiz-adv-x="858" d="M82 266q0 103 94 187.5t252 91.5q47 2 91 17t67 38q-73 94 -172 94q-33 0 -71 -14t-67 -43q-1 -2 -10 -16q-9 -15 -16 -15q-4 0 -8 4l-115 82q-6 3 -6 10q0 9 16 27.5t25 24.5v-2q99 99 237 108h25q74 -3 135 -33h-4q52 0 102.5 -57.5t90.5 -130.5q28 -52 28 -139v-488 q0 -12 -10 -12h-141q-11 0 -11 12v15q-5 -1 -20 -5.5t-21 -6.5t-20 -5.5t-21.5 -5t-21 -4t-24.5 -3.5t-24.5 -2t-27.5 -1q-151 0 -251.5 80.5t-100.5 191.5zM246 260q5 -42 54.5 -71t121.5 -29q64 0 123 18q45 18 69 45v199q-35 -21 -103.5 -33t-123.5 -17.5t-98 -32.5 t-43 -79zM614 215l17 10l-8 4q-3 0 -7 -4z" />
<glyph unicode="b" horiz-adv-x="978" d="M82 14v1254q0 12 12 12h139q13 0 13 -12v-465q34 27 98 43t123 16q178 0 304 -125.5t126 -302.5q0 -124 -60 -224t-157.5 -154t-212.5 -54q-137 0 -221 61v-49q0 -12 -13 -12h-139q-12 0 -12 12zM246 285q2 -2 11 -13.5t15 -19.5h-2l9 -6q78 -78 188 -78q113 0 189.5 76 t76.5 190q0 118 -80.5 192t-185.5 74q-118 0 -191 -79h3q-18 -18 -33 -39v-297z" />
<glyph unicode="c" horiz-adv-x="946" d="M82 430q0 91 35 168h-2q73 163 231 229v-2q75 37 164 37q104 0 198.5 -47.5t155.5 -132.5v-6q0 -6 -4 -10l-117 -82q-4 -4 -8 -4q-2 0 -8 6q-87 110 -217 110q-119 0 -192.5 -80t-73.5 -186q0 -42 15.5 -86.5t46 -85.5t84 -67.5t120.5 -26.5q76 0 125 29q8 7 33 29.5 t45.5 41.5t21.5 19q6 0 8 -2l117 -82q4 -4 4 -13v-6q-64 -82 -156 -130t-198 -48q-93 0 -174.5 37.5t-136 98.5t-86 137.5t-31.5 154.5z" />
<glyph unicode="d" horiz-adv-x="978" d="M82 434q0 128 75 238.5t191 154.5v-2q75 37 164 37q93 0 168 -37v2q33 -10 53 -24v465q0 12 12 12h140q12 0 12 -12v-1254q0 -12 -12 -12h-140q-12 0 -12 12v47q-100 -59 -221 -59q-108 0 -206 53.5t-161 154.5t-63 224zM246 434q0 -111 79.5 -188.5t186.5 -77.5 q68 0 129.5 32t91.5 85v299q-24 51 -89.5 83.5t-131.5 32.5q-103 0 -184.5 -76t-81.5 -190z" />
<glyph unicode="e" d="M82 430q0 90 35 168h-2q53 117 163 190.5t234 73.5q91 0 166 -37v2q77 -31 137.5 -92t93.5 -137h-2q35 -77 35 -168q0 -80 -18 -80h-668q29 -85 99.5 -135.5t156.5 -50.5q80 0 137 35q14 10 39.5 36.5t44.5 48t21 21.5q4 0 6 -2l119 -70q4 -4 4 -10q0 -4 -2 -6 q-56 -100 -150.5 -157.5t-218.5 -57.5q-119 0 -219 61t-155.5 159t-55.5 208zM256 514h510q-26 81 -96.5 131.5t-157.5 50.5q-101 0 -165 -55t-91 -127z" />
<glyph unicode="f" horiz-adv-x="604" d="M82 709v141q0 12 12 12h127v84q0 104 62.5 199.5t158.5 134.5l-4 -4q5 1 30 12.5t44 11.5q10 0 10 -12v-147l-16 -17q-123 -56 -123 -178v-84h127q12 0 12 -12v-141q0 -13 -12 -13h-127v-682q0 -12 -12 -12h-138q-12 0 -12 12v682h-127q-12 0 -12 13z" />
<glyph unicode="g" d="M82 -119q0 78 43.5 150t112.5 114q-5 77 -5 95q0 3 1.5 6t1.5 6q-58 25 -106 105.5t-48 158.5q0 142 124.5 243t305.5 101q86 0 150 -20q81 31 159 39q15 0 15 -13v-112q0 -1 -5 -6q111 -111 111 -232q0 -65 -35 -134t-106.5 -125t-161.5 -69q106 -33 175 -118t69 -189 q0 -81 -38 -147t-98.5 -105.5t-129 -60.5t-134.5 -21q-69 0 -138 21.5t-128.5 62t-97 106t-37.5 144.5zM246 -119q0 -25 12 -57v2q20 -28 47 -55v2q26 -25 75.5 -42.5t102.5 -17.5q111 0 173.5 56t62.5 112q0 54 -57 111v-2q-39 30 -78 43q-53 16 -101 16q-86 0 -143.5 -36 t-81.5 -76l2 2q-14 -40 -14 -58zM246 516q0 -64 75 -120t191 -56q106 0 185 51.5t79 124.5q0 33 -16 59.5t-47 57.5v-2q-31 24 -88 47q-62 16 -113 16q-64 0 -117 -18.5t-84 -46t-48 -57.5t-17 -56zM371 193v10q8 3 35 6v-25q-9 3 -18.5 4.5t-16.5 4.5zM637 188q2 -2 4 -2 l-2 2h-2z" />
<glyph unicode="h" horiz-adv-x="886" d="M82 14v1254q0 12 12 12h142q12 0 12 -12v-463q80 57 196 57q145 0 253 -105t108 -255v-488q0 -12 -12 -12h-142q-12 0 -12 12v488q0 81 -57.5 137.5t-137.5 56.5q-41 0 -84 -19t-77.5 -65t-34.5 -110v-488q0 -12 -12 -12h-142q-12 0 -12 12z" />
<glyph unicode="i" horiz-adv-x="325" d="M82 14v836q0 12 12 12h137q13 0 13 -12v-836q0 -12 -13 -12h-137q-12 0 -12 12zM82 969v139q0 10 12 10h137q13 0 13 -10v-139q0 -11 -13 -11h-137q-12 0 -12 11z" />
<glyph unicode="j" horiz-adv-x="839" d="M82 -27q0 11 12 11h142q9 0 12 -9q20 -51 66 -81.5t102 -30.5q75 0 127.5 52t52.5 126v807q0 12 12 12h137q13 0 13 -12v-807q0 -141 -100.5 -240.5t-241.5 -99.5q-121 0 -212.5 75t-121.5 193v4zM596 967v139q0 10 12 10h137q13 0 13 -10v-139q0 -11 -13 -11h-137 q-12 0 -12 11z" />
<glyph unicode="k" horiz-adv-x="808" d="M82 14v1254q0 12 12 12h142q12 0 12 -12v-668l385 260q2 2 6 2q7 0 10 -6l76 -113q2 -2 2 -6q0 -7 -6 -10l-324 -219q258 -388 328 -488q2 -2 2 -8q0 -10 -12 -10h-166q-8 0 -8 6l-279 410q-3 -3 -7 -6t-7 -6v-392q0 -12 -12 -12h-142q-12 0 -12 12z" />
<glyph unicode="l" horiz-adv-x="327" d="M82 14v1254q0 12 12 12h139q13 0 13 -12v-1254q0 -12 -13 -12h-139q-12 0 -12 12z" />
<glyph unicode="m" horiz-adv-x="1443" d="M82 14v836q0 12 12 12h142q12 0 12 -12v-45q80 57 196 57q81 0 155 -37t124 -94q51 58 123.5 94.5t154.5 36.5q62 0 125 -25t116 -70t86.5 -114.5t33.5 -150.5v-488q0 -12 -12 -12h-142q-10 0 -10 12v488q0 33 -16 76l2 -3q-28 57 -79.5 89t-103.5 32q-74 0 -135 -51.5 t-61 -142.5v-488q0 -12 -12 -12h-142q-12 0 -12 12v488q0 29 -14 76l2 -3q-28 58 -77.5 89.5t-105.5 31.5q-28 0 -59 -10t-63 -30.5t-53 -60.5t-21 -93v-488q0 -12 -12 -12h-142q-12 0 -12 12z" />
<glyph unicode="n" horiz-adv-x="884" d="M82 14v836q0 12 12 12h139q13 0 13 -12v-45q80 57 196 57q143 0 252 -102.5t109 -257.5v-488q0 -12 -12 -12h-140q-12 0 -12 12v488q0 89 -63 141.5t-134 52.5q-77 0 -136.5 -56t-59.5 -138v-488q0 -12 -13 -12h-139q-12 0 -12 12z" />
<glyph unicode="o" d="M82 428q0 180 125.5 306t304.5 126t304.5 -126t125.5 -306q0 -178 -125.5 -303t-304.5 -125t-304.5 125t-125.5 303zM244 428q0 -110 79 -188t189 -78t188 78t78 188t-78 188t-188 78t-189 -78t-79 -188z" />
<glyph unicode="p" horiz-adv-x="978" d="M82 -346v1194q0 12 12 12h139q13 0 13 -12v-47q14 11 53 24v-2q78 37 168 37q125 0 237.5 -74t161.5 -190h-2q33 -73 33 -168q0 -111 -54 -208.5t-154 -158.5t-222 -61q-137 0 -221 61v-407q0 -12 -13 -12h-139q-12 0 -12 12zM246 279q30 -49 92 -83t129 -34 q111 0 188.5 75.5t77.5 190.5q0 121 -82.5 193.5t-183.5 72.5q-67 0 -129 -33.5t-92 -82.5v-299z" />
<glyph unicode="q" horiz-adv-x="978" d="M82 428q0 90 35 168h-2q33 77 93.5 138t137.5 91v-2q75 37 166 37t166 -37v2q30 -7 55 -26v49q0 12 12 12h140q12 0 12 -12v-1194q0 -12 -12 -12h-140q-12 0 -12 12v407q-39 -29 -101 -45t-120 -16q-85 0 -166 35v-2q-119 49 -191.5 159t-72.5 236zM244 428 q0 -114 78.5 -190t189.5 -76q67 0 126.5 31t94.5 86v294q-86 121 -221 121q-109 0 -188.5 -77t-79.5 -189z" />
<glyph unicode="r" horiz-adv-x="690" d="M82 12v836q0 12 12 12h139q13 0 13 -12v-45q80 57 194 57q40 0 104 -16t64 -33v-6l-59 -125l-17 -4q-45 18 -92 18q-80 0 -137 -56.5t-57 -137.5v-488q0 -12 -13 -12h-139q-12 0 -12 12z" />
<glyph unicode="s" horiz-adv-x="763" d="M82 621q0 104 87 171.5t214 67.5q87 0 166 -33t123 -88q2 -2 2 -8t-2 -8l-105 -96q-4 -4 -8 -4q-7 0 -10 6q-23 32 -71.5 49.5t-106.5 17.5q-55 0 -92 -21.5t-37 -56.5q0 -40 43 -68t108 -36q124 -20 206.5 -96.5t82.5 -175.5q0 -101 -89 -169.5t-216 -68.5 q-181 0 -285 119q-4 4 -4 8t4 8l101 94q3 1 6 3t4 2q3 0 8 -5q21 -27 64.5 -48t93.5 -21q61 0 104 24t43 62q0 35 -41.5 63t-105.5 39q-125 17 -206 94t-81 175z" />
<glyph unicode="t" horiz-adv-x="661" d="M82 709v141q0 12 12 12h84v406q0 12 12 12h142q12 0 12 -12v-406h115q12 0 12 -12v-141q0 -13 -12 -13h-115v-403q0 -54 35.5 -91.5t89.5 -37.5q20 0 52.5 9t49.5 9q9 0 9 -12v-137l-7 -13q-49 -18 -104 -18q-125 0 -208 86t-83 205v403h-84q-12 0 -12 13z" />
<glyph unicode="u" horiz-adv-x="886" d="M82 360v488q0 12 12 12h142q12 0 12 -12v-488q0 -86 55 -142t137 -56q86 0 142.5 56t56.5 142v488q0 12 12 12h142q12 0 12 -12v-836q0 -12 -12 -12h-142q-12 0 -12 12v45q-93 -57 -199 -57q-149 0 -253.5 106t-104.5 254z" />
<glyph unicode="v" horiz-adv-x="1036" d="M82 854q0 8 14 8h150q9 0 12 -8l260 -610q39 95 260 610q3 8 13 8h151q12 0 12 -12v-4l-354 -836q-3 -8 -10 -8h-141q-10 0 -13 8l-352 836q-2 2 -2 8z" />
<glyph unicode="w" horiz-adv-x="1427" d="M82 846v4q0 12 12 12h146q9 0 12 -8l188 -578q31 95 94 289t95 289q3 8 12 8h145q10 0 13 -8l188 -578q32 95 96 289t95 289q3 8 12 8h145q11 0 11 -10v-6l-271 -836q-3 -8 -12 -8h-152q-7 0 -10 8l-186 574q-32 -95 -94 -287t-93 -287q-3 -8 -12 -8h-151q-10 0 -13 8z " />
<glyph unicode="x" horiz-adv-x="1011" d="M82 14q0 7 2 9l315 407l-315 412q-2 2 -2 8q0 12 10 12h178q7 0 11 -4l225 -293q38 50 113.5 146.5t113.5 146.5q4 4 8 4h177q12 0 12 -14q0 -4 -2 -6l-318 -412q53 -69 159 -203t159 -204q2 -2 2 -9q0 -12 -12 -12h-177q-4 0 -8 4l-227 291q-38 -50 -112.5 -145.5 t-112.5 -145.5q-4 -4 -11 -4h-178q-10 0 -10 12z" />
<glyph unicode="y" horiz-adv-x="884" d="M82 360v488q0 12 12 12h139q13 0 13 -12v-488q0 -27 16 -77l-2 2q35 -79 107 -109l-2 2q50 -16 77 -16q32 0 78 16l-2 -2q56 23 88.5 72t32.5 112v488q0 12 12 12h140q12 0 12 -12v-787q0 -153 -104 -256.5t-257 -103.5q-97 0 -190.5 57t-140.5 164v6q0 8 8 11l129 53h4 q5 0 14.5 -14.5t20.5 -33.5t16 -24q33 -26 64 -43l-2 2q50 -16 77 -16q32 0 78 16l-2 -2q54 25 87.5 70.5t33.5 107.5q-69 -55 -197 -55q-43 0 -90.5 13t-96 42t-87 70t-62.5 102t-24 133z" />
<glyph unicode="z" horiz-adv-x="884" d="M82 10q0 6 2 8l432 676h-420q-12 0 -12 13v141q0 12 12 12h695q12 0 12 -12q0 -4 -2 -6l-430 -680h420q12 0 12 -12v-138q0 -12 -12 -12h-697q-12 0 -12 10z" />
<glyph unicode="{" horiz-adv-x="438" d="M10 569v140q0 6 17 12t34 19t17 36v295q0 92 64 155.5t155 63.5h72q12 0 12 -12v-139q0 -13 -12 -13h-72q-24 0 -39.5 -15.5t-15.5 -39.5v-295q0 -78 -47 -137q47 -59 47 -137v-283q0 -24 15.5 -39.5t39.5 -15.5h72q12 0 12 -12v-140q0 -12 -12 -12h-72q-91 0 -155 64 t-64 155v283q0 23 -17 36t-34 19t-17 12z" />
<glyph unicode="|" horiz-adv-x="266" d="M49 -129v1534q0 12 12 12h140q12 0 12 -12v-1534q0 -12 -12 -12h-140q-12 0 -12 12z" />
<glyph unicode="}" horiz-adv-x="438" d="M51 12v140q0 12 12 12h74q23 0 38 15t15 40v283q0 83 48 137q-48 60 -48 137v295q0 25 -15 40t-38 15h-74q-12 0 -12 13v139q0 12 12 12h74q90 0 153.5 -63.5t63.5 -155.5v-295q0 -23 17 -36t34 -19t17 -12v-140q0 -6 -17 -12t-34 -19t-17 -36v-283q0 -91 -64 -155 t-153 -64h-74q-12 0 -12 12z" />
<glyph unicode="~" horiz-adv-x="931" d="M82 567q0 4 4 8q49 44 121.5 77.5t146.5 33.5q93 0 160 -51h-2q39 -25 74 -25q60 0 143 58l12 6q1 1 3.5 2t3.5 2q4 0 8 -4l90 -99q1 -2 2 -4.5t1.5 -3.5t0.5 -2q0 -29 -102 -69.5t-170 -40.5q-91 0 -158 51h2q-38 24 -74 24q-34 0 -72.5 -17t-56 -30t-24.5 -20 q-4 -4 -9 -4q-4 0 -8 4l-92 96q-4 4 -4 8z" />
<glyph unicode="&#xa1;" horiz-adv-x="325" d="M82 -150v998q0 12 12 12h137q13 0 13 -12v-998q0 -12 -13 -12h-137q-12 0 -12 12zM82 967v139q0 10 12 10h137q13 0 13 -10v-139q0 -11 -13 -11h-137q-12 0 -12 11z" />
<glyph unicode="&#xa2;" horiz-adv-x="946" d="M82 426q0 147 89 258.5t228 153.5v110q0 13 13 13h137q12 0 12 -13v-94q93 -12 173.5 -59t129.5 -119v-6q0 -7 -4 -11l-115 -81q-5 -5 -8 -5q-5 0 -8 7q-67 97 -168 108v-522q103 15 168 106q4 4 8 4q6 0 8 -2l115 -81q4 -4 4 -11v-4q-49 -72 -129.5 -119t-173.5 -59v-98 q0 -11 -12 -11h-137q-13 0 -13 11v112q-139 42 -228 154t-89 258zM248 426q0 -77 41.5 -142t109.5 -98v482q-68 -33 -109.5 -98t-41.5 -144z" />
<glyph unicode="&#xa3;" horiz-adv-x="1019" d="M82 12v140q0 12 10 12h98q16 90 48 264t49 264h-68q-12 0 -12 13v139q0 12 12 12h94q2 11 11 64t13.5 74.5t16.5 60t27 67.5q42 68 110 108t148 40q123 0 211 -87t88 -208q0 -10 -12 -10h-140q-12 0 -12 10q-2 56 -41 94.5t-94 38.5q-49 0 -92 -38t-43 -89l-21 -125h318 q10 0 10 -12v-139q0 -13 -10 -13h-348q-15 -90 -47 -264t-48 -264h568q12 0 12 -12v-140q0 -12 -12 -12h-834q-10 0 -10 12z" />
<glyph unicode="&#xa4;" horiz-adv-x="729" d="M82 465q0 4 4 8l43 47q-29 56 -29 119t29 119l-10 10t-12.5 12t-11.5 11.5t-9.5 11.5t-3.5 8q0 4 4 8l96 99q4 4 8 4q5 0 9 -4l43 -44q46 27 120 27q77 0 121 -29q3 3 16.5 18t22.5 23.5t13 8.5q2 -2 8 -4l100 -99l4 -8q0 -4 -4 -8l-47 -45q31 -54 31 -119t-31 -119 q49 -49 49 -55q0 -4 -2 -6l-100 -99q-4 -4 -8 -4q-5 0 -9 4l-43 43q-64 -28 -121 -28q-56 0 -120 28l-43 -43q-4 -4 -9 -4q-4 0 -8 4l-96 99q-4 4 -4 6zM264 639q0 -44 28 -73t70 -29q41 0 71 30.5t30 71.5t-30 70.5t-71 29.5t-69.5 -28.5t-28.5 -71.5z" />
<glyph unicode="&#xa5;" horiz-adv-x="978" d="M82 393v142q0 10 10 10h316v55h-316q-10 0 -10 10v142q0 12 10 12h268q-43 74 -89.5 157t-102 183t-86.5 156v6q0 12 10 12h160q7 0 10 -6l227 -408q37 69 114 204t114 204q3 6 10 6h158q12 0 12 -12q0 -4 -2 -6l-277 -496h267q12 0 12 -12v-142q0 -10 -12 -10h-314v-55 h314q12 0 12 -10v-142q0 -10 -12 -10h-314v-369q0 -12 -12 -12h-139q-12 0 -12 12v369h-316q-10 0 -10 10z" />
<glyph unicode="&#xa6;" horiz-adv-x="327" d="M82 -129v698q0 13 12 13h139q13 0 13 -13v-698q0 -12 -13 -12h-139q-12 0 -12 12zM82 709v696q0 12 12 12h139q13 0 13 -12v-696q0 -13 -13 -13h-139q-12 0 -12 13z" />
<glyph unicode="&#xa7;" horiz-adv-x="616" d="M82 346v21q0 12 12 12h135q13 0 13 -12v-21q0 -27 19 -46t48 -19t47.5 19t18.5 46q0 29 -18.5 47.5t-47.5 18.5q-92 0 -159.5 67.5t-67.5 159.5q0 82 53 145q-53 63 -53 148q0 91 67.5 158t159.5 67q91 0 158.5 -67t67.5 -158v-21q0 -12 -13 -12h-135q-12 0 -12 12v21 q0 27 -18.5 46t-47.5 19t-48 -19t-19 -46q0 -29 19 -47.5t48 -18.5q91 0 158.5 -67.5t67.5 -159.5q0 -77 -54 -145q54 -68 54 -148q0 -92 -67.5 -159.5t-158.5 -67.5q-92 0 -159.5 67.5t-67.5 159.5zM242 639q0 -29 19 -47.5t48 -18.5t47.5 18.5t18.5 47.5t-18.5 47.5 t-47.5 18.5t-48 -18.5t-19 -47.5z" />
<glyph unicode="&#xa8;" horiz-adv-x="477" d="M82 1171v95q0 12 12 12h94q13 0 13 -12v-95q0 -12 -13 -12h-94q-12 0 -12 12zM276 1171v95q0 12 13 12h96q10 0 10 -12v-95q0 -12 -10 -12h-96q-13 0 -13 12z" />
<glyph unicode="&#xa9;" horiz-adv-x="1452" d="M82 643q0 130 51 249.5t137.5 206t205.5 138t249 51.5q174 0 322.5 -87t235.5 -235.5t87 -322.5q0 -130 -51.5 -249t-138 -205.5t-206 -137.5t-249.5 -51q-174 0 -322 86.5t-234.5 234.5t-86.5 322zM199 643q0 -145 70 -266.5t191 -191.5t265 -70q145 0 267.5 70 t193.5 191.5t71 266.5t-71 268t-193.5 194t-267.5 71q-144 0 -265 -71t-191 -194t-70 -268zM289 641q0 181 127.5 308.5t308.5 127.5q41 0 110.5 -13t69.5 -30v-4l-37 -88q-3 -6 -8 -6q-1 0 -2 1t-2 1q-69 29 -131 29q-133 0 -229.5 -96.5t-96.5 -229.5t96.5 -229.5 t229.5 -96.5q80 0 149 37h5q6 0 6 -2l43 -86q0 -1 1 -3t1 -3q0 -4 -4 -4q-88 -49 -201 -49q-181 0 -308.5 127.5t-127.5 308.5z" />
<glyph unicode="&#xaa;" horiz-adv-x="737" d="M82 621v59q0 10 10 10h531q12 0 12 -10v-59q0 -13 -12 -13h-531q-10 0 -10 13zM137 903q0 64 62 121t159 57q40 0 84 27l7 2q-6 11 -15 23h2q-34 34 -86 34q-50 0 -84 -34l-2 -3q-2 -2 -9 -11t-13 -9q-2 0 -6 4l-70 55q-6 6 -6 9q0 6 8 16.5t20 17.5v-2q38 38 66 47 l-2 -2q46 22 88 25h14q22 -2 47.5 -8.5t59 -23.5t59.5 -41t44 -65t18 -93v-306q0 -12 -13 -12h-88q-12 0 -12 12v2q-56 -18 -94 -18q-113 0 -175.5 50t-62.5 126zM248 899q0 -25 35.5 -42t76.5 -17q56 0 109 37v116q-6 -2 -22 -7.5t-25 -8.5t-24.5 -5.5t-32.5 -2.5 q-53 0 -85 -20t-32 -50z" />
<glyph unicode="&#xab;" horiz-adv-x="819" d="M82 639q0 4 4 8l270 271q4 4 9 4q2 -2 8 -4l98 -97l4 -8q0 -4 -4 -8l-164 -166l164 -164q2 -2 2 -8q0 -4 -2 -6l-98 -101q-4 -4 -8 -4q-5 0 -9 4l-270 271q-4 4 -4 8zM342 639q0 4 4 8l270 271q4 4 9 4q2 -2 8 -4l100 -97l4 -8q0 -4 -4 -8l-166 -166q27 -27 82.5 -81.5 t83.5 -82.5q2 -2 2 -8q0 -4 -2 -6l-100 -101q-4 -4 -8 -4q-5 0 -9 4l-270 271q-4 4 -4 8z" />
<glyph unicode="&#xac;" horiz-adv-x="815" d="M82 502v139q0 12 12 12h627q12 0 12 -12v-395q0 -13 -12 -13h-139q-13 0 -13 13v243h-475q-12 0 -12 13z" />
<glyph unicode="&#xad;" horiz-adv-x="978" d="M82 500v141q0 12 10 12h793q12 0 12 -12v-141q0 -13 -12 -13h-793q-10 0 -10 13z" />
<glyph unicode="&#xae;" horiz-adv-x="1452" d="M82 643q0 130 51.5 249.5t137.5 206t205 138t249 51.5q174 0 322.5 -87t235.5 -235.5t87 -322.5q0 -130 -51.5 -249t-138 -205.5t-206 -137.5t-249.5 -51t-248.5 51t-205 137t-138 205.5t-51.5 249.5zM199 643q0 -145 70.5 -266.5t191.5 -191.5t264 -70q150 0 285 82 q-54 82 -161.5 241.5t-162.5 241.5h-70v-432q0 -12 -12 -12h-90q-12 0 -12 12v794q0 11 12 11h328q76 0 132 -55t56 -132t-56 -131.5t-132 -54.5h-17q29 -44 123.5 -189.5t149.5 -226.5q75 73 117 171.5t42 207.5q0 145 -71 268t-193.5 194t-267.5 71q-143 0 -264 -71 t-191.5 -194t-70.5 -268zM616 791h226q31 0 52 22t21 53t-21.5 53.5t-51.5 22.5h-226v-151z" />
<glyph unicode="&#xaf;" horiz-adv-x="978" d="M82 1124v142q0 12 10 12h793q12 0 12 -12v-142q0 -12 -12 -12h-793q-10 0 -10 12z" />
<glyph unicode="&#xb0;" horiz-adv-x="737" d="M82 1004q0 116 80 196t196 80t196.5 -80.5t80.5 -195.5q0 -116 -80.5 -196.5t-196.5 -80.5q-115 0 -195.5 80.5t-80.5 196.5zM195 1004q0 -69 47 -116.5t116 -47.5q66 0 114 48t48 116q0 67 -48 115t-114 48q-69 0 -116 -47.5t-47 -115.5z" />
<glyph unicode="&#xb1;" horiz-adv-x="813" d="M82 217v139q0 13 12 13h625q12 0 12 -13v-139q0 -12 -12 -12h-625q-12 0 -12 12zM82 680v139q0 10 12 10h232v232q0 12 10 12h139q12 0 12 -12v-232h232q12 0 12 -10v-139q0 -12 -12 -12h-232v-234q0 -12 -12 -12h-139q-10 0 -10 12v234h-232q-12 0 -12 12z" />
<glyph unicode="&#xb2;" horiz-adv-x="503" d="M82 621v77l215 389l2 5q8 13 8 28q0 29 -18 46.5t-45 17.5q-25 0 -41.5 -18.5t-24 -37t-10.5 -18.5h-74q-12 0 -12 10q0 66 48 113t114 47q63 0 110 -46t47 -114q0 -12 -9 -38t-9 -40l-190 -337h196q12 0 12 -13v-71q0 -13 -12 -13h-295q-12 0 -12 13z" />
<glyph unicode="&#xb3;" horiz-adv-x="632" d="M82 782q0 11 12 11h76q10 -12 33 -35q39 -39 49 -45q33 -11 51 -11q58 0 94.5 41.5t36.5 92.5q0 46 -35 88.5t-96 42.5q-12 0 -12 12v72q0 5 17.5 12.5t35.5 22t18 36.5q0 26 -16.5 43t-42.5 17q-20 0 -33.5 -13.5t-22 -27t-14.5 -13.5h-73q-13 0 -13 15q7 60 51.5 98.5 t104.5 38.5q66 0 111 -46t45 -112q0 -58 -33 -94q47 -31 75.5 -83t28.5 -109q0 -98 -70 -163t-157 -65q-40 0 -89 18.5t-90.5 60.5t-41.5 95z" />
<glyph unicode="&#xb4;" horiz-adv-x="471" d="M82 1106q0 2 4 6l193 164l8 4q7 0 10 -6l88 -107q1 -2 2 -4.5t1.5 -3.5t0.5 -2q0 -4 -4 -8l-195 -162q-4 -4 -8 -4q-2 0 -8 6l-88 107q-4 4 -4 10z" />
<glyph unicode="&#xb5;" horiz-adv-x="886" d="M82 -346v1194q0 12 12 12h142q12 0 12 -12v-488q0 -24 4.5 -45t12.5 -37t14 -25.5t15 -20t9 -11.5q25 -23 37 -31.5t38.5 -18t61.5 -9.5q76 0 137.5 50.5t61.5 147.5v488q0 12 12 12h142q12 0 12 -12v-836q0 -12 -12 -12h-142q-12 0 -12 12v45q-3 -3 -13 -8t-14 -8 l-14 -6q-41 -19 -73 -27t-85 -8q-99 0 -192 59v-405q0 -12 -12 -12h-142q-12 0 -12 12z" />
<glyph unicode="&#xb6;" horiz-adv-x="978" d="M82 989q0 118 85.5 204.5t203.5 86.5l270 -2q12 0 12 -12v-1252q0 -12 -12 -12h-139q-13 0 -13 12v686h-118q-119 0 -204 84.5t-85 204.5zM733 14v1254q0 12 12 12l140 -2q12 0 12 -12v-1252q0 -12 -12 -12h-140q-12 0 -12 12z" />
<glyph unicode="&#xb7;" horiz-adv-x="325" d="M82 571v138q0 12 12 12h137q13 0 13 -12v-138q0 -12 -13 -12h-137q-12 0 -12 12z" />
<glyph unicode="&#xb8;" horiz-adv-x="448" d="M82 -242q0 8 6 11l68 43q2 2 6 2q1 0 17 -16.5t36 -16.5q19 0 33 13.5t14 33.5q0 23 -14 37t-33 14q-13 0 -27 -8t-16 -8q-8 0 -8 12v137q0 13 10 13h80q12 0 12 -13v-41q45 -14 73 -53t28 -90q0 -62 -45.5 -107t-106.5 -45q-38 0 -85.5 24t-47.5 58z" />
<glyph unicode="&#xb9;" horiz-adv-x="346" d="M82 1202q0 4 4 8l64 66q4 4 8 4h73q13 0 13 -12v-647q0 -13 -13 -13h-71q-13 0 -13 13v522q-2 -2 -6 -2q-6 0 -6 4l-49 49q-4 4 -4 8z" />
<glyph unicode="&#xba;" horiz-adv-x="737" d="M82 621v59q0 10 10 10h531q12 0 12 -10v-59q0 -13 -12 -13h-531q-10 0 -10 13zM82 1004q0 116 80 196t196 80t196.5 -80.5t80.5 -195.5q0 -116 -80.5 -196.5t-196.5 -80.5q-115 0 -195.5 80.5t-80.5 196.5zM164 1004q0 -82 56 -137.5t138 -55.5q80 0 137.5 56t57.5 137 q0 79 -57.5 135.5t-137.5 56.5q-81 0 -137.5 -56t-56.5 -136z" />
<glyph unicode="&#xbb;" horiz-adv-x="817" d="M82 467q0 4 4 8l164 164q-139 139 -164 166q-4 4 -4 8t4 8l98 97q0 4 6 4q3 -2 9 -4l272 -271q0 -3 1 -5t1 -3t-1 -4t-1 -4l-272 -271q-4 -4 -9 -4q-6 0 -6 4l-98 101q-4 4 -4 6zM340 467q0 4 4 8l166 164l-166 166q-4 4 -4 8t4 8l100 97q4 4 9 4q2 -2 8 -4l270 -271 l4 -8q0 -4 -4 -8l-270 -271q-4 -4 -8 -4q-5 0 -9 4l-100 101q-4 4 -4 6z" />
<glyph unicode="&#xbc;" horiz-adv-x="1507" d="M82 14q0 7 2 9l1053 1253q3 3 4 2t4 2h184q12 0 12 -14q0 -4 -2 -6l-1054 -1254q0 -4 -9 -4h-182q-12 0 -12 12zM82 1192q0 4 4 8l74 76q4 4 8 4h84q12 0 12 -12v-752q0 -12 -12 -12h-84q-12 0 -12 12v604q-9 0 -13 4l-57 60q-4 4 -4 8zM985 432v88q0 4 4 8l248 246 q4 4 8 4h84q12 0 12 -12v-236h72q12 0 12 -12v-86q0 -12 -12 -12h-72v-406q0 -12 -12 -12h-84q-12 0 -12 12v406h-236q-12 0 -12 12zM1145 530h88v91q-15 -14 -41 -43t-47 -48z" />
<glyph unicode="&#xbd;" horiz-adv-x="1468" d="M82 14q0 7 2 9l1053 1253q4 4 10 4h182q12 0 12 -14q0 -4 -2 -6l-1054 -1254q-3 -3 -4.5 -2t-4.5 -2h-182q-12 0 -12 12zM82 1192q0 4 4 8l76 76q4 4 8 4h84q12 0 12 -12v-752q0 -12 -12 -12h-84q-12 0 -12 12v604q-9 0 -13 4l-59 60q-4 4 -4 8zM1018 14v92l252 449l2 4 q8 16 8 35q0 32 -22.5 55t-53.5 23q-32 0 -50.5 -22.5t-26.5 -45t-13 -22.5h-84q-12 0 -12 12q0 76 54 130t132 54q73 0 127.5 -55t54.5 -129q0 -44 -22 -86q-4 -4 -4 -6q-38 -70 -108.5 -197t-108.5 -196h231q12 0 12 -11v-84q0 -12 -12 -12h-344q-12 0 -12 12z" />
<glyph unicode="&#xbe;" horiz-adv-x="1605" d="M82 702q0 11 12 11l88 -2q3 0 18.5 -18.5t34 -40t29.5 -25.5q43 -19 72 -19q56 0 106 40.5t50 115.5q0 42 -23.5 82t-73.5 63l2 -2q-10 4 -30 7t-31.5 7t-11.5 11v86q0 5 13 10.5t29 11.5t29 21.5t13 38.5q0 30 -21 50.5t-51 20.5q-20 0 -36.5 -15.5t-27.5 -31.5t-18 -16 h-86q-10 0 -10 12q8 68 58.5 114t119.5 46q75 0 127.5 -53t52.5 -127q0 -66 -39 -111q50 -37 85.5 -95t35.5 -130q0 -73 -41 -139t-119 -101v2q-52 -22 -102 -22q-51 0 -103 22l3 -2q-51 24 -90 61.5t-52 78.5v-2q-12 32 -12 40zM180 14q0 7 2 9l1055 1253q4 4 8 4h182 q13 0 13 -14q0 -4 -2 -6l-1053 -1254q-4 -4 -8 -4h-184q-13 0 -13 12zM1085 432v88q0 3 5 8l245 246q4 4 8 4h84q13 0 13 -12v-236h71q13 0 13 -12v-86q0 -12 -13 -12h-71v-406q0 -12 -13 -12h-84q-12 0 -12 12v406h-233q-13 0 -13 12zM1241 530h90v88z" />
<glyph unicode="&#xbf;" horiz-adv-x="825" d="M82 180q0 69 29 135h-2q19 55 69 105.5t115 79.5v-2q28 17 97.5 23.5t86.5 23.5l6 6q13 7 23 29l-2 -2q6 18 6 32q0 17 -6 35l2 -2q-20 53 -80 53q-13 0 -41 -12l-20 -10h2q-8 -8 -12.5 -16t-5.5 -12t-3.5 -6.5t-7.5 -2.5h-6l-129 53q-8 3 -8 10v7q32 67 90.5 110 t138.5 43h2q98 0 173 -69t75 -181q0 -48 -19 -94q-21 -51 -53.5 -83.5t-68 -45.5t-67.5 -18.5t-64.5 -9t-47.5 -9.5h2q-61 -36 -85.5 -73.5t-24.5 -96.5q0 -85 55 -132.5t125 -47.5q82 0 127 53q6 6 16.5 23t20 30t12.5 13h6l127 -56q8 -3 8 -10v-6q-38 -90 -124.5 -150.5 t-192.5 -60.5q-84 0 -152.5 34t-108.5 86.5t-61.5 110.5t-21.5 113zM332 967v139q0 10 12 10h137q13 0 13 -10v-139q0 -11 -13 -11h-137q-12 0 -12 11z" />
<glyph unicode="&#xc0;" horiz-adv-x="1243" d="M20 8q3 2 5 8l585 1321q3 6 11 6q4 0 10 -6l590 -1321q2 -2 2 -8q0 -8 -13 -8h-155q-8 0 -11 8l-210 475h-426q-40 -96 -116 -265.5t-93 -209.5q-3 -8 -11 -8h-153q-15 0 -15 8zM465 1516q0 1 0.5 2t1.5 3.5t2 4.5l92 106q4 4 8 4q7 0 9 -2l196 -164q6 -3 6 -10 q-2 -2 -4 -8l-90 -109q-4 -4 -10 -4q-4 0 -8 4l-197 164q-6 3 -6 9zM485 647h275l-137 311q-24 -55 -69.5 -156t-68.5 -155z" />
<glyph unicode="&#xc1;" horiz-adv-x="1243" d="M20 8q3 2 5 8l589 1321q3 6 11 6q4 0 10 -6l586 -1321q2 -2 2 -8q0 -8 -13 -8h-153q-7 0 -10 8q-17 40 -93 209.5t-116 265.5h-426l-211 -475q-3 -8 -11 -8h-155q-15 0 -15 8zM465 1460q0 7 6 10l197 164q2 2 6 2q6 0 10 -4l92 -106q1 -2 2 -4.5t1.5 -3.5t0.5 -2 q0 -6 -6 -9l-196 -164q-4 -4 -11 -4q-4 0 -8 4l-90 109zM485 647h275q-23 55 -68 155.5t-69 155.5z" />
<glyph unicode="&#xc2;" horiz-adv-x="1241" d="M20 8q3 2 5 8l585 1321q3 6 11 6q4 0 10 -6l588 -1321q2 -2 2 -8q0 -8 -13 -8h-153q-8 0 -11 8l-210 475h-426q-39 -94 -113.5 -258t-97.5 -217q-3 -8 -11 -8h-151q-15 0 -15 8zM410 1460q0 7 6 10l196 164q4 4 9 4q2 -2 8 -4l194 -164q6 -3 6 -10q-2 -2 -4 -8l-90 -109 q-4 -4 -10 -4q-4 0 -8 4l-96 82q-9 -7 -34.5 -30t-46 -39.5t-28.5 -16.5q-4 0 -8 4l-90 109zM481 647h279l-139 316q-48 -112 -140 -316z" />
<glyph unicode="&#xc3;" horiz-adv-x="1241" d="M20 8q0 -8 15 -8h151q8 0 11 8q23 53 97.5 217t113.5 258h426l210 -475q3 -8 11 -8h153q13 0 13 8q0 6 -2 8l-588 1321q-6 6 -10 6q-8 0 -11 -6l-585 -1321zM319 1391q-8 8 0 16q37 35 93 60.5t114 25.5q78 0 129 -41q26 -16 52 -16q55 0 108 41l19 10q4 0 8 -4l71 -76 q8 -12 0 -18q-39 -31 -94.5 -55.5t-113.5 -24.5q-75 0 -127 39q-29 18 -56 18q-26 0 -54 -12.5t-42 -22.5t-20 -16q-10 -10 -17 0zM481 647q92 204 140 316l139 -316h-279z" />
<glyph unicode="&#xc4;" horiz-adv-x="1241" d="M20 8q3 2 5 8l585 1321q3 6 11 6q4 0 10 -6l588 -1321q2 -2 2 -8q0 -8 -13 -8h-153q-8 0 -11 8l-210 475h-426q-39 -94 -113.5 -258t-97.5 -217q-3 -8 -11 -8h-151q-15 0 -15 8zM463 1372v98q0 13 12 13h96q13 0 13 -13v-98q0 -12 -13 -12h-96q-12 0 -12 12zM481 647h279 l-139 316q-48 -112 -140 -316zM659 1372v98q0 13 13 13h96q12 0 12 -13v-98q0 -12 -12 -12h-96q-13 0 -13 12z" />
<glyph unicode="&#xc5;" horiz-adv-x="1241" d="M20 8q0 -8 15 -8h151q8 0 11 8q23 53 97.5 217t113.5 258h426l210 -475q3 -8 11 -8h153q13 0 13 8q0 6 -2 8l-588 1321q-6 6 -10 6q-8 0 -11 -6l-585 -1321zM463 1516q0 63 44 107t107 44q64 0 109 -44t45 -107q0 -65 -45 -110.5t-109 -45.5q-63 0 -107 45.5t-44 110.5z M481 647q92 204 140 316l139 -316h-279zM567 1516q0 -23 14 -37.5t33 -14.5q20 0 35 15t15 37q0 20 -14.5 33.5t-35.5 13.5q-19 0 -33 -13t-14 -34z" />
<glyph unicode="&#xc6;" horiz-adv-x="1490" d="M20 10q3 2 5 8l563 1266q3 8 10 8h799q12 0 12 -12v-143q0 -11 -12 -11h-647v-254h233q12 0 12 -12v-141q0 -12 -12 -12h-233v-541h647q12 0 12 -10v-142q0 -12 -12 -12h-799q-12 0 -12 12v469h-176q-111 -243 -211 -473q-3 -8 -11 -8h-153q-15 0 -15 8zM483 649h103v234 q-20 -42 -52 -118.5t-51 -115.5z" />
<glyph unicode="&#xc7;" horiz-adv-x="1110" d="M82 645q0 174 86.5 322.5t235 235.5t323.5 87q61 0 163.5 -19t102.5 -44v-6l-55 -129q-3 -9 -10 -9h-6q-94 43 -195 43q-199 0 -340 -141t-141 -340q0 -132 64.5 -242.5t175 -174.5t241.5 -64q115 0 221 53h8q5 0 9 -4l63 -125v-6q0 -27 -90.5 -50.5t-157.5 -31.5v-29 q48 -17 75.5 -55t27.5 -88q0 -65 -46 -109.5t-110 -44.5q-37 0 -85 25t-48 59q0 8 6 11l70 41q2 2 4 2t18.5 -16.5t34.5 -16.5q23 0 37 14t14 35t-14 35t-37 14q-10 0 -23.5 -8t-17.5 -8q-10 0 -10 12v127q-164 11 -300.5 100.5t-215 233.5t-78.5 311z" />
<glyph unicode="&#xc8;" horiz-adv-x="985" d="M82 12v1266q0 12 12 12h797q12 0 12 -12v-141q0 -11 -12 -11h-645v-254h233q13 0 13 -12v-143q0 -12 -13 -12h-233v-539h645q12 0 12 -10v-144q0 -12 -12 -12h-797q-12 0 -12 12zM334 1460q0 1 0.5 2t1.5 3.5t2 4.5l90 109q3 6 8 6q1 0 2 -0.5t3.5 -1.5t4.5 -2l197 -164 q6 -3 6 -10q-2 -2 -4 -8l-90 -109q-3 -6 -10 -6q-2 2 -8 4l-197 164q-6 3 -6 8z" />
<glyph unicode="&#xc9;" horiz-adv-x="985" d="M82 12q0 -12 12 -12h797q12 0 12 12v144q0 10 -12 10h-645v539h233q13 0 13 12v143q0 12 -13 12h-233v254h645q12 0 12 11v141q0 12 -12 12h-797q-12 0 -12 -12v-1266zM334 1407q0 7 6 10l197 164l8 4q7 0 10 -6l90 -109q1 -2 2 -4.5t1.5 -3.5t0.5 -2q0 -5 -6 -8 l-197 -164q-2 -1 -4.5 -2t-3.5 -1.5t-2 -0.5q-5 0 -8 6l-90 109z" />
<glyph unicode="&#xca;" horiz-adv-x="985" d="M82 12v1266q0 12 12 12h797q12 0 12 -12v-141q0 -11 -12 -11h-645v-254h233q13 0 13 -12v-143q0 -12 -13 -12h-233v-539h645q12 0 12 -10v-144q0 -12 -12 -12h-797q-12 0 -12 12zM283 1407q0 7 6 10l196 164q4 4 9 4q2 -2 8 -4l194 -164q6 -3 6 -10q-2 -2 -4 -8l-90 -109 q-3 -6 -10 -6q-2 2 -8 4l-96 82q-9 -7 -34.5 -30t-46 -39.5t-28.5 -16.5q-5 0 -8 6l-90 109z" />
<glyph unicode="&#xcb;" horiz-adv-x="985" d="M82 12v1266q0 12 12 12h797q12 0 12 -12v-141q0 -11 -12 -11h-645v-254h233q13 0 13 -12v-143q0 -12 -13 -12h-233v-539h645q12 0 12 -10v-144q0 -12 -12 -12h-797q-12 0 -12 12zM332 1321v96q0 13 12 13h98q13 0 13 -13v-96q0 -12 -13 -12h-98q-12 0 -12 12zM530 1321 v96q0 13 11 13h98q12 0 12 -13v-96q0 -12 -12 -12h-98q-11 0 -11 12z" />
<glyph unicode="&#xcc;" horiz-adv-x="477" d="M82 1460q0 8 2 10l92 109q6 6 8 6q5 0 9 -4l198 -164q4 -4 4 -8q0 -1 -0.5 -2t-1.5 -3.5t-2 -4.5l-92 -107q-3 -6 -8 -6q-2 0 -6 4l-199 162q-4 4 -4 8zM86 14v142q0 10 12 10h60v962h-60q-12 0 -12 11v141q0 12 12 12h283q12 0 12 -12v-141q0 -11 -12 -11h-59v-962h59 q12 0 12 -10v-142q0 -12 -12 -12h-283q-12 0 -12 12z" />
<glyph unicode="&#xcd;" horiz-adv-x="477" d="M82 1409q0 4 4 8l199 164q4 4 6 4q4 0 10 -6l92 -109q0 -3 1 -5t1 -5q0 -4 -4 -8l-198 -162q-4 -4 -7 -4q-5 0 -8 6l-92 107q-4 4 -4 10zM84 14v142q0 10 12 10h60v962h-60q-12 0 -12 11v141q0 12 12 12h283q12 0 12 -12v-141q0 -11 -12 -11h-60v-962h60q12 0 12 -10 v-142q0 -12 -12 -12h-283q-12 0 -12 12z" />
<glyph unicode="&#xce;" horiz-adv-x="579" d="M82 1409q0 4 4 8l195 164q4 4 8 4q2 -2 8 -4l197 -164q4 -4 4 -8q0 -1 -0.5 -2t-1.5 -3.5t-2 -4.5l-91 -107q-6 -6 -10 -6q-2 0 -6 4l-98 82q-6 -5 -33 -30.5t-46 -40.5t-26 -15q-2 0 -8 6l-90 107q-4 4 -4 10zM135 14v142q0 10 12 10h60v962h-60q-12 0 -12 11v141 q0 12 12 12h283q10 0 10 -12v-141q0 -11 -10 -11h-59v-962h59q10 0 10 -10v-142q0 -12 -10 -12h-283q-12 0 -12 12z" />
<glyph unicode="&#xcf;" horiz-adv-x="483" d="M82 1321v96q0 13 10 13h98q13 0 13 -13v-96q0 -12 -13 -12h-98q-10 0 -10 12zM86 14v142q0 10 12 10h60v962h-60q-12 0 -12 11v141q0 12 12 12h283q12 0 12 -12v-141q0 -11 -12 -11h-59v-962h59q12 0 12 -10v-142q0 -12 -12 -12h-283q-12 0 -12 12zM279 1321v96 q0 13 12 13h98q12 0 12 -13v-96q0 -12 -12 -12h-98q-12 0 -12 12z" />
<glyph unicode="&#xd0;" horiz-adv-x="1263" d="M82 575v142q0 12 12 12h131v549q0 12 13 12h299q130 0 249.5 -51t206 -137.5t138 -205.5t51.5 -249q0 -175 -87 -323.5t-235.5 -235t-322.5 -86.5h-299q-13 0 -13 12v549h-131q-12 0 -12 12zM391 168h146q199 0 339 140t140 339q0 97 -37.5 185t-101.5 152t-153 102 t-187 38h-146v-395h131q13 0 13 -12v-142q0 -12 -13 -12h-131v-395z" />
<glyph unicode="&#xd1;" horiz-adv-x="1222" d="M82 12q0 -12 12 -12h142q12 0 12 12v1022l700 -1028q6 -6 10 -6h170q13 0 13 12v1266q0 12 -13 12h-139q-12 0 -12 -12v-1020l-703 1026q-6 6 -8 6h-172q-12 0 -12 -12v-1266zM315 1391q-8 8 0 16q37 35 93 60.5t114 25.5q78 0 129 -41q26 -16 51 -16q56 0 109 41l18 10 q5 0 9 -4l71 -76q7 -11 0 -18q-38 -31 -95 -55.5t-116 -24.5q-73 0 -125 39q-29 18 -55 18t-54.5 -12.5t-42.5 -22.5t-20 -16q-10 -10 -16 0z" />
<glyph unicode="&#xd2;" horiz-adv-x="1454" d="M82 645q0 174 86.5 322.5t235 235.5t323.5 87q174 0 322.5 -87t235.5 -235.5t87 -322.5q0 -175 -87 -323.5t-235.5 -235t-322.5 -86.5q-175 0 -323.5 86.5t-235 235t-86.5 323.5zM246 645q0 -199 141 -340t340 -141q198 0 338.5 141t140.5 340t-140.5 340t-338.5 141 q-199 0 -340 -141t-141 -340zM571 1460q0 6 4 10l91 107q4 4 8 4q6 0 8 -2l195 -162q6 -3 6 -10q-2 -2 -4 -8l-91 -109q-3 -6 -10 -6q-2 2 -8 4l-195 164q-4 4 -4 8z" />
<glyph unicode="&#xd3;" horiz-adv-x="1454" d="M82 645q0 -175 86.5 -323.5t235 -235t323.5 -86.5q174 0 322.5 86.5t235.5 235t87 323.5q0 174 -87 322.5t-235.5 235.5t-322.5 87q-175 0 -323.5 -87t-235 -235.5t-86.5 -322.5zM246 645q0 199 141 340t340 141q198 0 338.5 -141t140.5 -340t-140.5 -340t-338.5 -141 q-199 0 -340 141t-141 340zM567 1399q-8 12 2 18l195 162q7 7 16 -2l90 -107q8 -12 0 -18l-194 -164q-12 -8 -19 2z" />
<glyph unicode="&#xd4;" horiz-adv-x="1454" d="M82 645q0 174 86.5 322.5t235 235.5t323.5 87q174 0 322.5 -87t235.5 -235.5t87 -322.5q0 -175 -87 -323.5t-235.5 -235t-322.5 -86.5q-175 0 -323.5 86.5t-235 235t-86.5 323.5zM246 645q0 -199 141 -340t340 -141q198 0 338.5 141t140.5 340t-140.5 340t-338.5 141 q-199 0 -340 -141t-141 -340zM516 1407q0 7 6 10l197 162q4 4 8 4q2 -2 8 -4l195 -162q6 -3 6 -10q-2 -2 -4 -8l-90 -109q-3 -6 -11 -6q-2 2 -8 4l-96 82q-9 -7 -34.5 -30t-46 -39.5t-28.5 -16.5q-5 0 -8 6l-90 109z" />
<glyph unicode="&#xd5;" horiz-adv-x="1454" d="M82 645q0 -175 86.5 -323.5t235 -235t323.5 -86.5q174 0 322.5 86.5t235.5 235t87 323.5q0 174 -87 322.5t-235.5 235.5t-322.5 87q-175 0 -323.5 -87t-235 -235.5t-86.5 -322.5zM246 645q0 199 141 340t340 141q198 0 338.5 -141t140.5 -340t-140.5 -340t-338.5 -141 q-199 0 -340 141t-141 340zM422 1391q-8 8 0 16q37 35 93 60.5t114 25.5q81 0 129 -41q26 -16 53 -16q50 0 109 41l18 10q2 0 6 -4l72 -76q8 -12 0 -18q-38 -31 -94.5 -55.5t-114.5 -24.5q-72 0 -127 39q-29 18 -55 18t-54 -12t-43 -23t-18 -16q-10 -10 -16 0z" />
<glyph unicode="&#xd6;" horiz-adv-x="1454" d="M82 645q0 174 86.5 322.5t235 235.5t323.5 87q174 0 322.5 -87t235.5 -235.5t87 -322.5q0 -175 -87 -323.5t-235.5 -235t-322.5 -86.5q-175 0 -323.5 86.5t-235 235t-86.5 323.5zM246 645q0 -199 141 -340t340 -141q198 0 338.5 141t140.5 340t-140.5 340t-338.5 141 q-199 0 -340 -141t-141 -340zM567 1319v98q0 13 13 13h96q12 0 12 -13v-98q0 -12 -12 -12h-96q-13 0 -13 12zM764 1319v98q0 13 12 13h96q13 0 13 -13v-98q0 -12 -13 -12h-96q-12 0 -12 12z" />
<glyph unicode="&#xd7;" horiz-adv-x="729" d="M82 467q0 4 4 8l162 164q-111 111 -162 166q-4 4 -4 8t4 8l96 97q4 4 8 4q3 -2 9 -4l166 -164l161 164q4 4 9 4q2 -2 8 -4l100 -97l4 -8q0 -4 -4 -8l-166 -166q28 -27 83.5 -81.5t82.5 -82.5q2 -2 2 -8q0 -4 -2 -6l-100 -101q-4 -4 -8 -4q-5 0 -9 4l-161 166l-166 -166 q-4 -4 -9 -4q-4 0 -8 4l-96 101q-4 4 -4 6z" />
<glyph unicode="&#xd8;" horiz-adv-x="1454" d="M82 645q0 174 86.5 322.5t235 235.5t323.5 87q218 0 393 -135l84 84q4 4 8 4q3 -2 9 -4l100 -100q2 -2 2 -9q0 -4 -2 -6l-84 -84q135 -175 135 -395q0 -175 -87 -323.5t-235.5 -235t-322.5 -86.5q-222 0 -397 135l-84 -84q-4 -4 -8 -4q-5 0 -9 4l-98 99q-4 4 -4 8 q0 2 4 6l86 86q-135 166 -135 395zM246 645q0 -151 86 -276l669 667q-131 90 -274 90q-132 0 -242.5 -64.5t-174.5 -175t-64 -241.5zM438 244l11 10q-5 2 -11 8v-18zM449 254q126 -90 278 -90q198 0 338.5 141t140.5 340q0 149 -88 277z" />
<glyph unicode="&#xd9;" horiz-adv-x="1118" d="M82 483v795q0 12 12 12h144q10 0 10 -12v-795q0 -131 91.5 -223t221.5 -92q128 0 218.5 92.5t90.5 222.5v795q0 12 13 12h141q12 0 12 -12v-795q0 -199 -140 -340t-335 -141q-198 0 -338.5 141t-140.5 340zM401 1460q0 1 2 4t3 6l90 109q3 6 8 6q1 0 2 -0.5t3.5 -1.5 t4.5 -2l197 -164q6 -3 6 -10q-2 -2 -4 -8l-90 -109q-3 -6 -11 -6q-2 2 -8 4l-196 164q-7 4 -7 8z" />
<glyph unicode="&#xda;" horiz-adv-x="1118" d="M82 483v795q0 12 12 12h142q12 0 12 -12v-795q0 -130 90.5 -222.5t218.5 -92.5q130 0 221.5 92t91.5 223v795q0 12 11 12h143q12 0 12 -12v-795q0 -199 -140.5 -340t-338.5 -141q-195 0 -335 141t-140 340zM401 1407q0 7 7 10l196 164l8 4q8 0 11 -6l90 -109q1 -2 2 -4.5 t1.5 -3.5t0.5 -2q0 -5 -6 -8l-197 -164q-2 -1 -4.5 -2t-3.5 -1.5t-2 -0.5q-5 0 -8 6l-90 109z" />
<glyph unicode="&#xdb;" horiz-adv-x="1118" d="M82 483v795q0 12 12 12h144q10 0 10 -12v-795q0 -131 91 -223t220 -92t220 92t91 223v795q0 12 13 12h141q12 0 12 -12v-795q0 -131 -64 -241.5t-174 -175t-239 -64.5t-239 64.5t-174 175t-64 241.5zM350 1407q0 6 4 10l197 164q4 4 8 4q2 0 6 -4l199 -164q6 -3 6 -10 q-2 -2 -4 -8l-92 -109q-3 -6 -8 -6q-3 2 -9 4l-98 82q-11 -6 -34.5 -28.5t-43.5 -40t-28 -17.5q-3 0 -9 6l-92 109q-2 2 -2 8z" />
<glyph unicode="&#xdc;" horiz-adv-x="1118" d="M82 483v795q0 12 12 12h144q10 0 10 -12v-795q0 -131 91 -223t220 -92t220 92t91 223v795q0 12 13 12h141q12 0 12 -12v-795q0 -131 -64 -241.5t-174 -175t-239 -64.5t-239 64.5t-174 175t-64 241.5zM399 1321v96q0 13 13 13h96q12 0 12 -13v-96q0 -12 -12 -12h-96 q-13 0 -13 12zM596 1321v96q0 13 12 13h97q12 0 12 -13v-96q0 -12 -12 -12h-97q-12 0 -12 12z" />
<glyph unicode="&#xdd;" horiz-adv-x="985" d="M82 1278q0 -4 2 -6q54 -98 162.5 -293.5t163.5 -294.5v-670q0 -12 12 -12h139q12 0 12 12v670l328 588q2 2 2 6q0 12 -12 12h-160q-7 0 -10 -6q-30 -55 -109 -195t-120 -217l-228 412q-6 6 -10 6h-160q-12 0 -12 -12zM336 1399q-8 12 2 18l194 164q12 8 19 -2l90 -109 q8 -12 -2 -18l-195 -164q-12 -8 -18 2z" />
<glyph unicode="&#xde;" horiz-adv-x="974" d="M82 -350v1628q0 12 12 12h139q13 0 13 -12v-406h211q181 0 308.5 -128.5t127.5 -307.5q0 -182 -127.5 -309t-308.5 -127h-211v-350q0 -12 -13 -12h-139q-12 0 -12 12zM248 166h209q110 0 190 80t80 190q0 112 -79.5 190.5t-190.5 78.5h-209v-539z" />
<glyph unicode="&#xdf;" horiz-adv-x="968" d="M82 -346v1612q0 12 12 12h373q120 0 204.5 -85t84.5 -206q0 -102 -72 -188q94 -61 148.5 -156.5t54.5 -210.5q0 -180 -126.5 -306t-305.5 -126h-78q-10 0 -10 12v142q0 12 10 12h78q110 0 189 78t79 188t-79 188t-189 78h-78q-10 0 -10 13v141q0 12 10 12h90q51 0 87 36 t36 89q0 51 -36 87t-87 36h-219v-1458q0 -12 -12 -12h-142q-12 0 -12 12z" />
<glyph unicode="&#xe0;" horiz-adv-x="858" d="M82 254q0 119 95.5 200.5t250.5 88.5q48 2 92 16.5t68 38.5q-24 42 -73 68t-99 26q-33 0 -72.5 -14.5t-67.5 -42.5l-2 -2q-3 -3 -7.5 -10.5t-8.5 -13t-8 -5.5q-2 0 -6 4l-117 82q-6 6 -6 12q0 18 43 50v-2q99 99 237 108h23q58 -2 129 -29q2 -2 4 -2l8 -4 q59 -23 108.5 -73.5t76.5 -112.5l-2 2q28 -57 28 -141v-488q0 -12 -10 -12h-141q-11 0 -11 12v15q-3 0 -7.5 -3t-6.5 -4q-76 -26 -170 -26q-138 0 -241 76.5t-107 185.5zM248 258q5 -43 54.5 -71.5t121.5 -28.5q124 0 190 59v203q-32 -19 -84.5 -29.5t-98.5 -16t-89 -15 t-68.5 -34.5t-25.5 -67zM274 1038q0 4 5 9l92 106q4 4 8 4q6 0 8 -2l193 -164q4 -4 4 -8q0 -1 -0.5 -2t-1.5 -3.5t-2 -4.5l-91 -105q-6 -6 -8 -6t-6 4l-194 164q-7 4 -7 8z" />
<glyph unicode="&#xe1;" horiz-adv-x="858" d="M82 254q4 -109 107 -185.5t241 -76.5q94 0 170 26q2 1 6.5 4t7.5 3v-15q0 -12 11 -12h141q10 0 10 12v488q0 84 -28 141l2 -2q-27 62 -76.5 112.5t-108.5 73.5l-8 4q-2 0 -4 2q-71 27 -129 29h-23q-138 -9 -237 -108v2q-43 -32 -43 -50q0 -6 6 -12l117 -82q4 -4 6 -4 q4 0 8 5.5t8.5 13t7.5 10.5l2 2q28 28 67.5 42.5t72.5 14.5q50 0 99 -26t73 -68q-24 -24 -68 -38.5t-92 -16.5q-155 -7 -250.5 -88.5t-95.5 -200.5zM248 258q0 42 25.5 67t68.5 34.5t89 15t98.5 16t84.5 29.5v-203q-66 -59 -190 -59q-72 0 -121.5 28.5t-54.5 71.5zM276 983 q0 3 5 8l192 164q2 2 6 2q6 0 10 -4l93 -106q2 -2 2 -9q0 -4 -4 -8l-195 -164q-4 -4 -6 -4t-8 6l-90 105q-5 5 -5 10z" />
<glyph unicode="&#xe2;" horiz-adv-x="858" d="M82 254q0 49 21 97.5t61.5 90.5t109 69.5t154.5 31.5q87 3 137 41q9 4 13.5 7.5t7.5 4.5q-38 49 -74 72.5t-96 23.5q-35 0 -76 -15t-64 -42l-2 -2q-3 -3 -7.5 -10.5t-8.5 -13t-8 -5.5q-2 0 -6 4l-117 82q-6 6 -6 12q0 18 43 50v-2q89 97 237 108h23q58 -2 129 -29 q2 -2 4 -2l8 -4q92 -37 151.5 -127.5t59.5 -197.5v-488q0 -12 -10 -12h-141q-11 0 -11 12v15q-4 0 -6 -2q-85 -31 -174 -31q-142 0 -239 71h2q-50 35 -80.5 85.5t-34.5 105.5zM223 983q0 4 4 8l195 164q4 4 8 4q2 -2 8 -4l193 -164q4 -4 4 -8q0 -1 -0.5 -2t-1.5 -3.5 t-2 -4.5l-88 -105q-6 -6 -11 -6q-2 0 -6 4l-96 82q-86 -86 -104 -86q-3 0 -9 6l-90 105q-4 4 -4 10zM248 258q4 -43 54.5 -71.5t119.5 -28.5q126 0 192 59v203q-33 -20 -101 -32t-123 -18.5t-98.5 -34t-43.5 -77.5z" />
<glyph unicode="&#xe3;" horiz-adv-x="858" d="M82 264q0 -109 98 -190.5t252 -81.5q90 0 166 26q2 1 7.5 4t8.5 3v-15q0 -12 11 -12h141q10 0 10 12v488q0 110 -62 198t-151 127q-4 0 -8 4h4q-57 28 -137 31h-16q-145 -9 -244 -108v2q-9 -6 -25 -24.5t-16 -27.5q0 -7 6 -10l115 -82q4 -4 8 -4t9.5 6.5t10.5 14.5l6 8v2 q29 29 67 43t71 14q99 0 172 -94q-23 -23 -67 -38t-91 -17q-158 -7 -252 -91.5t-94 -187.5zM126 973q0 5 3 8q35 35 90.5 60.5t114.5 25.5q75 0 127 -39q24 -18 51 -18q41 0 109 41l16 10q4 0 8 -4l70 -76q9 -13 0 -16q-36 -30 -92.5 -55t-114.5 -25q-73 0 -125 39 q-29 18 -53 18q-13 0 -28 -3.5t-26.5 -8.5t-23.5 -12t-19 -12t-13 -10l-7 -5q-8 -8 -14 0l-70 76q-3 1 -3 6zM246 258q0 52 42 78.5t96.5 31.5t123.5 17t106 35v-203q-64 -59 -192 -59q-68 0 -120 28.5t-56 71.5z" />
<glyph unicode="&#xe4;" horiz-adv-x="858" d="M82 264q0 103 94 187.5t252 91.5q47 2 91 17t67 38q-73 94 -172 94q-33 0 -71 -14t-67 -43v-2l-6 -8q-5 -8 -10.5 -14.5t-9.5 -6.5t-8 4l-115 82q-6 3 -6 10q0 9 16 27.5t25 24.5v-2q99 99 244 108h16q80 -3 137 -31h-4q4 -4 8 -4q89 -39 151 -127t62 -198v-488 q0 -12 -10 -12h-141q-11 0 -11 12v15q-3 0 -8.5 -3t-7.5 -4q-76 -26 -166 -26q-154 0 -252 81.5t-98 190.5zM246 258q4 -43 56 -71.5t120 -28.5q128 0 192 59v203q-37 -23 -106 -35t-123.5 -17t-96.5 -31.5t-42 -78.5zM270 895v96q0 13 13 13h96q12 0 12 -13v-96 q0 -10 -12 -10h-96q-13 0 -13 10zM467 895v96q0 13 12 13h94q13 0 13 -13v-96q0 -10 -13 -10h-94q-12 0 -12 10z" />
<glyph unicode="&#xe5;" horiz-adv-x="858" d="M82 264q0 -109 98 -190.5t252 -81.5q90 0 166 26q2 1 7.5 4t8.5 3v-15q0 -12 11 -12h141q10 0 10 12v488q0 110 -62 198t-151 127q-4 0 -8 4h4q-57 28 -137 31h-16q-145 -9 -244 -108v2q-9 -6 -25 -24.5t-16 -27.5q0 -7 6 -10l115 -82q4 -4 8 -4t9.5 6.5t10.5 14.5l6 8v2 q29 29 67 43t71 14q99 0 172 -94q-23 -23 -67 -38t-91 -17q-158 -7 -252 -91.5t-94 -187.5zM246 258q0 52 42 78.5t96.5 31.5t123.5 17t106 35v-203q-64 -59 -192 -59q-68 0 -120 28.5t-56 71.5zM285 1038q0 62 44 106t107 44t107.5 -44t44.5 -106q0 -64 -44.5 -108.5 t-107.5 -44.5t-107 44.5t-44 108.5zM389 1038q0 -23 14 -37t33 -14q22 0 35.5 14.5t13.5 36.5q0 19 -14 33t-35 14q-19 0 -33 -13.5t-14 -33.5z" />
<glyph unicode="&#xe6;" horiz-adv-x="1548" d="M82 256q0 115 94 198.5t254 90.5q46 2 89.5 16t66.5 37q-22 35 -42.5 52t-51.5 30l2 -2q-46 16 -76 16q-28 0 -78 -16l2 2q-37 -14 -63 -43l-13 -12q-2 -2 -5.5 -7t-6.5 -8.5t-6 -3.5q-2 0 -6 4l-113 82q-6 3 -6 10t16 23h-2q67 67 128.5 99t135.5 36h25q54 -3 131 -31 l10 -4q92 -45 142 -116l22 24q51 57 135.5 92t169.5 35q130 0 238.5 -74t159.5 -190h-2q34 -84 34 -168q0 -80 -18 -80h-666q20 -79 93 -132.5t161 -53.5q77 0 139 37t95 98q3 6 10 6q4 0 6 -2l117 -70q6 -3 6 -10q0 -4 -2 -6q-55 -99 -153 -157t-218 -58q-137 0 -258 86 v-74q0 -12 -12 -12h-139q-13 0 -13 12v15l-14 -7q-68 -26 -166 -26q-83 0 -160 29.5t-132 91t-60 141.5zM248 260q5 -39 53.5 -69.5t114.5 -30.5q139 0 198 59v123q-8 27 -8 76q-27 -20 -91.5 -30t-121 -15.5t-101 -33t-44.5 -79.5zM606 418q13 4 19 10l-19 10v-20zM782 512 h510q-29 80 -101 131t-155 51q-73 0 -150.5 -48.5t-103.5 -133.5z" />
<glyph unicode="&#xe7;" horiz-adv-x="946" d="M82 428q0 82 30.5 160t84.5 138.5t136 97t177 36.5q109 0 199 -49.5t155 -130.5v-6q0 -6 -4 -10l-117 -82q-4 -4 -8 -4q-2 0 -20 18.5t-42 40.5t-38 29q-61 28 -125 28q-118 0 -192 -79t-74 -187q0 -76 45 -146t119 -102l-2 2q44 -20 104 -20q135 0 217 114q5 5 8 5 q6 0 8 -2l117 -82q4 -4 4 -13q0 -27 -52 -68.5t-99 -66.5q-71 -38 -150 -47v-27q44 -14 71.5 -53t27.5 -90q0 -63 -45 -107t-107 -44q-37 0 -85 23.5t-48 57.5q0 8 6 11l70 43q2 2 6 2q3 0 19 -16.5t32 -16.5q23 0 36 13t13 34q0 49 -49 49q-7 0 -19.5 -7t-19.5 -7 q-12 0 -12 12v123q-63 6 -115 33h2q-127 55 -195.5 157t-68.5 236z" />
<glyph unicode="&#xe8;" d="M82 430q0 90 35 168h-2q53 117 163 190.5t234 73.5q91 0 166 -37v2q77 -31 137.5 -92t93.5 -137h-2q35 -77 35 -168q0 -80 -18 -80h-668q29 -85 99.5 -135.5t156.5 -50.5q80 0 137 35q14 10 39.5 36.5t44.5 48t21 21.5q4 0 6 -2l119 -70q4 -4 4 -10q0 -4 -2 -6 q-56 -100 -150.5 -157.5t-218.5 -57.5q-119 0 -219 61t-155.5 159t-55.5 208zM256 514h510q-26 81 -96.5 131.5t-157.5 50.5q-101 0 -165 -55t-91 -127zM354 1022q-10 6 0 16l90 107q10 9 17 2l194 -164q10 -6 0 -16l-90 -107q-2 -3 -6.5 -4t-7.5 2z" />
<glyph unicode="&#xe9;" d="M82 430q0 90 35 168h-2q53 117 163 190.5t234 73.5q91 0 166 -37v2q77 -31 137.5 -92t93.5 -137h-2q35 -77 35 -168q0 -80 -18 -80h-668q29 -85 99.5 -135.5t156.5 -50.5q80 0 137 35q14 10 39.5 36.5t44.5 48t21 21.5q4 0 6 -2l119 -70q4 -4 4 -10q0 -4 -2 -6 q-56 -100 -150.5 -157.5t-218.5 -57.5q-119 0 -219 61t-155.5 159t-55.5 208zM256 514h510q-26 81 -96.5 131.5t-157.5 50.5q-101 0 -165 -55t-91 -127zM352 967q-8 8 0 16l197 164q3 3 7.5 2t6.5 -4l90 -107q10 -10 0 -16l-194 -164q-7 -8 -17 2z" />
<glyph unicode="&#xea;" d="M82 430q0 90 35 168h-2q53 117 163 190.5t234 73.5q91 0 166 -37v2q77 -31 137.5 -92t93.5 -137h-2q35 -77 35 -168q0 -80 -18 -80h-668q29 -85 99.5 -135.5t156.5 -50.5q80 0 137 35q14 10 39.5 36.5t44.5 48t21 21.5q4 0 6 -2l119 -70q4 -4 4 -10q0 -4 -2 -6 q-56 -100 -150.5 -157.5t-218.5 -57.5q-119 0 -219 61t-155.5 159t-55.5 208zM256 514h510q-26 81 -96.5 131.5t-157.5 50.5q-101 0 -165 -55t-91 -127zM301 967q-10 10 0 16l195 164q8 8 16 0l195 -164q5 -5 0 -16l-91 -107q-9 -9 -16 -2l-96 82q-15 -14 -48 -41t-48 -41 q-8 -8 -17 2z" />
<glyph unicode="&#xeb;" d="M82 430q0 90 35 168h-2q53 117 163 190.5t234 73.5q91 0 166 -37v2q77 -31 137.5 -92t93.5 -137h-2q35 -77 35 -168q0 -80 -18 -80h-668q29 -85 99.5 -135.5t156.5 -50.5q80 0 137 35q14 10 39.5 36.5t44.5 48t21 21.5q4 0 6 -2l119 -70q4 -4 4 -10q0 -4 -2 -6 q-56 -100 -150.5 -157.5t-218.5 -57.5q-119 0 -219 61t-155.5 159t-55.5 208zM256 514h510q-26 81 -96.5 131.5t-157.5 50.5q-101 0 -165 -55t-91 -127zM348 889v94q0 12 10 12h97q5 0 8.5 -3.5t3.5 -8.5v-94q0 -5 -3.5 -8.5t-8.5 -3.5h-97q-10 0 -10 12zM543 889v94 q0 5 3.5 8.5t8.5 3.5h94q5 0 9 -4t4 -8v-94q0 -4 -4 -8t-9 -4h-94q-5 0 -8.5 3.5t-3.5 8.5z" />
<glyph unicode="&#xec;" horiz-adv-x="471" d="M82 1028q0 1 0.5 2t1.5 3.5t2 4.5l88 107q3 6 8 6q1 0 4.5 -1.5t6.5 -2.5l192 -164q4 -4 4 -8t-4 -8l-88 -107q-6 -6 -10 -6q-2 0 -6 4l-193 162q-6 3 -6 8zM158 12v836q0 12 12 12h137q10 0 10 -12v-836q0 -12 -10 -12h-137q-12 0 -12 12z" />
<glyph unicode="&#xed;" horiz-adv-x="473" d="M86 967q-10 10 0 16l209 164q11 7 18 -4l74 -107q7 -7 -2 -16l-192 -162q-7 -8 -17 2zM160 12q0 -12 12 -12h137q10 0 10 12v836q0 12 -10 12h-137q-12 0 -12 -12v-836z" />
<glyph unicode="&#xee;" horiz-adv-x="575" d="M82 975q0 4 4 8l193 164q4 4 8 4q2 -2 8 -4l194 -164q5 -5 5 -8t-5 -8l-88 -107q-6 -6 -10 -6q-2 0 -6 4l-98 82q-86 -86 -103 -86q-2 0 -8 6l-90 107q-4 4 -4 8zM207 12v836q0 12 12 12h137q13 0 13 -12v-836q0 -12 -13 -12h-137q-12 0 -12 12z" />
<glyph unicode="&#xef;" horiz-adv-x="477" d="M82 889v94q0 12 12 12h94q13 0 13 -12v-94q0 -12 -13 -12h-94q-12 0 -12 12zM158 12v836q0 12 12 12h137q10 0 10 -12v-836q0 -12 -10 -12h-137q-12 0 -12 12zM276 889v94q0 12 13 12h96q10 0 10 -12v-94q0 -12 -10 -12h-96q-13 0 -13 12z" />
<glyph unicode="&#xf0;" d="M82 428q0 62 17 123t53 117t86 98.5t121 68t153 25.5q73 0 143 -25.5t123 -68.5v164q0 43 -20 82v2q-8 -6 -30.5 -28t-41 -38t-24.5 -16q-5 0 -11 6l-90 106q-4 4 -4 11q0 2 4 6l72 61q-24 6 -51 6q-19 0 -46.5 -7t-37.5 -7q-8 0 -11 8l-55 125q0 1 -1 2t-1 2q0 17 55 28 t97 11q73 0 143 -28l-2 2q25 -9 47 -25q4 3 22 18.5t31 25t19 9.5q7 0 10 -6l88 -102q2 -2 2 -8q0 -5 -4 -9l-53 -45q57 -93 57 -192v-502q0 -72 -30 -147t-83.5 -138t-137 -103t-179.5 -40q-123 0 -223 61.5t-153.5 159t-53.5 207.5zM244 428q0 -80 45 -146t119 -102l-2 2 q47 -20 106 -20q58 0 102 20l-2 -2q69 32 117.5 97.5t48.5 150.5q0 114 -80 190t-186 76q-104 0 -186 -74.5t-82 -191.5z" />
<glyph unicode="&#xf1;" horiz-adv-x="884" d="M82 12v836q0 12 12 12h139q13 0 13 -12v-45q80 57 196 57q79 0 142 -31l-2 2q91 -34 156 -126.5t65 -204.5v-488q0 -12 -12 -12h-140q-12 0 -12 12v488q0 28 -10.5 59.5t-32 62.5t-62 51.5t-92.5 20.5q-81 0 -138.5 -57t-57.5 -137v-488q0 -12 -13 -12h-139q-12 0 -12 12 zM143 948q0 27 79.5 59.5t131.5 32.5q75 0 127 -39h-2q24 -18 56 -18q30 0 57 13.5t44 26.5t21 13q5 0 9 -4l69 -76q1 -2 2 -4.5t1.5 -3.5t0.5 -2q0 -23 -77 -55.5t-134 -32.5q-76 0 -125 39h3q-27 18 -56 18q-46 0 -92 -28q-18 -12 -33 -27q-4 0 -8 4l-70 76q-4 4 -4 8z " />
<glyph unicode="&#xf2;" d="M82 428q0 180 125.5 306t304.5 126t304.5 -126t125.5 -306q0 -178 -125.5 -303t-304.5 -125t-304.5 125t-125.5 303zM244 428q0 -110 79 -188t189 -78t188 78t78 188t-78 188t-188 78t-189 -78t-79 -188zM362 1022q-10 6 0 16l89 107q9 9 16 2l197 -164q5 -5 0 -16 l-91 -107q-9 -9 -16 -2z" />
<glyph unicode="&#xf3;" d="M82 428q0 180 125.5 306t304.5 126t304.5 -126t125.5 -306q0 -178 -125.5 -303t-304.5 -125t-304.5 125t-125.5 303zM244 428q0 -110 79 -188t189 -78t188 78t78 188t-78 188t-188 78t-189 -78t-79 -188zM354 967q-10 10 0 16l197 164q3 3 7.5 2t6.5 -4l90 -107 q10 -10 0 -16l-194 -164q-7 -8 -17 2z" />
<glyph unicode="&#xf4;" d="M82 428q0 180 125.5 306t304.5 126t304.5 -126t125.5 -306q0 -178 -125.5 -303t-304.5 -125t-304.5 125t-125.5 303zM244 428q0 -110 79 -188t189 -78t188 78t78 188t-78 188t-188 78t-189 -78t-79 -188zM303 967q-10 10 0 16l193 164q8 8 16 0l195 -164q10 -6 0 -16 l-89 -107q-9 -9 -16 -2l-98 82q-16 -13 -47.5 -40.5t-46.5 -41.5q-8 -8 -17 2z" />
<glyph unicode="&#xf5;" d="M82 428q0 118 58 217.5t157 157t215 57.5q119 0 219 -62t155.5 -161t55.5 -209q0 -114 -56 -212t-155.5 -157t-218.5 -59q-176 0 -303 122.5t-127 305.5zM217 958q-7 8 0 15q37 35 93 60.5t114 25.5q75 0 127 -39q25 -19 51 -19q41 0 109 41l16 11q4 0 8 -4l70 -76 q8 -12 0 -17q-36 -30 -92.5 -54.5t-114.5 -24.5q-74 0 -125 38q-30 19 -53 19q-26 0 -55 -12.5t-42 -22t-20 -16.5q-10 -10 -16 0zM246 428q0 -116 81.5 -191t184.5 -75q116 0 192 82t76 184q0 113 -81.5 189.5t-186.5 76.5q-113 0 -189.5 -80.5t-76.5 -185.5z" />
<glyph unicode="&#xf6;" d="M82 428q0 180 125.5 306t304.5 126t304.5 -126t125.5 -306q0 -178 -125.5 -303t-304.5 -125t-304.5 125t-125.5 303zM244 428q0 -110 79 -188t189 -78t188 78t78 188t-78 188t-188 78t-189 -78t-79 -188zM348 889v94q0 12 10 12h99q5 0 8.5 -3.5t3.5 -8.5v-94 q0 -5 -3.5 -8.5t-8.5 -3.5h-99q-10 0 -10 12zM543 889v94q0 5 3.5 8.5t8.5 3.5h96q5 0 9 -4t4 -8v-94q0 -4 -4 -8t-9 -4h-96q-5 0 -8.5 3.5t-3.5 8.5z" />
<glyph unicode="&#xf7;" horiz-adv-x="813" d="M82 569v140q0 12 12 12h625q12 0 12 -12v-140q0 -12 -12 -12h-625q-12 0 -12 12zM326 326v139q0 12 10 12h139q12 0 12 -12v-139q0 -11 -12 -11h-139q-10 0 -10 11zM326 813v139q0 13 10 13h139q12 0 12 -13v-139q0 -12 -12 -12h-139q-10 0 -10 12z" />
<glyph unicode="&#xf8;" d="M82 428q0 128 69.5 239.5t192.5 159.5v-2q81 35 168 35q58 0 125 -22t117 -52q4 4 19.5 21t26.5 28t15 11q2 -2 8 -4l101 -99l4 -8q0 -4 -4 -8l-56 -53q40 -79 57 -131.5t17 -114.5q0 -115 -59.5 -214.5t-158.5 -156.5t-212 -57q-124 0 -244 74q-13 -19 -33.5 -39.5 t-27.5 -20.5q-4 0 -8 4l-101 99q-4 4 -4 8t4 8l56 53q-8 13 -21 37.5t-20 36.5h2q-33 73 -33 168zM244 428q0 -83 28 -123q52 55 111.5 114.5t134 132.5t115.5 114q-11 3 -31 10t-30.5 10t-26.5 5.5t-33 2.5q-105 0 -186.5 -72t-81.5 -194zM262 295l19 -2q0 3 -4.5 6t-4.5 6 q-2 -2 -5.5 -4.5t-4.5 -5.5zM385 190q2 -2 14 -6l9 -4l-2 2q47 -20 106 -20q80 0 145 42.5t101 121.5l-2 -2q22 61 22 104q0 46 -22 107l2 -3q-7 3 -10 13l-5 8l2 -2zM633 666l12 -7l-2 19l-6 -8t-4 -4z" />
<glyph unicode="&#xf9;" horiz-adv-x="886" d="M82 360v488q0 12 12 12h142q12 0 12 -12v-488q0 -86 55 -142t137 -56q86 0 142.5 56t56.5 142v488q0 12 12 12h142q12 0 12 -12v-836q0 -12 -12 -12h-142q-12 0 -12 12v45q-93 -57 -199 -57q-149 0 -253.5 106t-104.5 254zM287 1022q-10 6 0 16l90 107q9 9 16 2l195 -164 q10 -6 0 -16l-90 -107q-8 -8 -15 -2z" />
<glyph unicode="&#xfa;" horiz-adv-x="886" d="M82 360v488q0 12 12 12h142q12 0 12 -12v-488q0 -86 55 -142t137 -56q86 0 142.5 56t56.5 142v488q0 12 12 12h142q12 0 12 -12v-836q0 -12 -12 -12h-142q-12 0 -12 12v45q-93 -57 -199 -57q-149 0 -253.5 106t-104.5 254zM287 967q-10 10 0 16l196 164q7 7 15 -2 l90 -107q10 -10 0 -16l-195 -164q-7 -7 -16 2z" />
<glyph unicode="&#xfb;" horiz-adv-x="886" d="M82 360v488q0 12 12 12h142q12 0 12 -12v-488q0 -86 55 -142t137 -56q86 0 142.5 56t56.5 142v488q0 12 12 12h142q12 0 12 -12v-836q0 -12 -12 -12h-142q-12 0 -12 12v45q-93 -57 -199 -57q-149 0 -253.5 106t-104.5 254zM236 967q-10 10 0 16l192 164q8 8 16 0 l195 -164q10 -6 0 -16l-88 -107q-9 -9 -16 -2l-99 82q-16 -13 -47.5 -40.5t-46.5 -41.5q-7 -7 -16 2z" />
<glyph unicode="&#xfc;" horiz-adv-x="886" d="M82 360v488q0 12 12 12h142q12 0 12 -12v-488q0 -86 55 -142t137 -56q86 0 142.5 56t56.5 142v488q0 12 12 12h142q12 0 12 -12v-836q0 -12 -12 -12h-142q-12 0 -12 12v45q-93 -57 -199 -57q-149 0 -253.5 106t-104.5 254zM279 889v94q0 5 3.5 8.5t8.5 3.5h98 q5 0 8.5 -3.5t3.5 -8.5v-94q0 -5 -3.5 -8.5t-8.5 -3.5h-98q-5 0 -8.5 3.5t-3.5 8.5zM475 889v94q0 5 3.5 8.5t8.5 3.5h97q4 0 8 -3.5t4 -8.5v-94q0 -5 -4 -8.5t-8 -3.5h-97q-5 0 -8.5 3.5t-3.5 8.5z" />
<glyph unicode="&#xfd;" horiz-adv-x="884" d="M82 360q0 -72 24 -133t62.5 -102t87 -70t96 -42t90.5 -13q128 0 197 55q0 -62 -33.5 -107.5t-87.5 -70.5l2 2q-46 -16 -78 -16q-27 0 -77 16l2 -2q-31 17 -64 43q-5 5 -16 24t-20.5 33.5t-14.5 14.5h-4l-129 -53q-8 -3 -8 -11v-6q47 -107 140.5 -164t190.5 -57 q153 0 257 103.5t104 256.5v787q0 12 -12 12h-140q-12 0 -12 -12v-488q0 -63 -32.5 -112t-88.5 -72l2 2q-46 -16 -78 -16q-27 0 -77 16l2 -2q-72 30 -107 109l2 -2q-16 50 -16 77v488q0 12 -13 12h-139q-12 0 -12 -12v-488zM287 948q-9 13 0 19l194 161q3 3 8 2t7 -4 l90 -104q8 -12 0 -18l-193 -164q-7 -7 -16 2z" />
<glyph unicode="&#xfe;" horiz-adv-x="978" d="M82 -346v1612q0 12 12 12h139q13 0 13 -12v-686h362q120 0 204.5 -85t84.5 -206q0 -120 -84.5 -204.5t-204.5 -84.5h-362v-346q0 -12 -13 -12h-139q-12 0 -12 12zM248 166h360q52 0 87.5 36t35.5 89q0 51 -36 87t-87 36h-360v-248z" />
<glyph unicode="&#xff;" horiz-adv-x="884" d="M82 360v488q0 12 12 12h139q13 0 13 -12v-488q0 -87 60 -142.5t136 -55.5q40 0 73.5 13.5t56 35t38 48t22.5 52.5t7 49v488q0 12 12 12h140q12 0 12 -12v-787q0 -145 -105.5 -252.5t-255.5 -107.5q-106 0 -193 55.5t-140 165.5v6q0 8 8 11l129 55h4q3 0 11.5 -12.5 t20 -31t21.5 -28.5q24 -25 62.5 -42t76.5 -17q55 0 95 22t60.5 56t29.5 61.5t12 52.5q-76 -55 -197 -55q-62 0 -124 23.5t-115.5 66.5t-87 114t-33.5 156zM285 870v97q0 10 12 10h96q13 0 13 -10v-97q0 -12 -13 -12h-96q-12 0 -12 12zM481 870v97q0 10 11 10h96q12 0 12 -10 v-97q0 -12 -12 -12h-96q-11 0 -11 12z" />
<glyph unicode="&#x152;" horiz-adv-x="2111" d="M82 645q0 174 87 322.5t235.5 235.5t322.5 87q281 0 481 -213v201q0 12 13 12h796q13 0 13 -12v-141q0 -11 -13 -11h-645v-254h232q12 0 12 -12v-143q0 -12 -12 -12h-232v-539h645q13 0 13 -10v-144q0 -12 -13 -12h-796q-13 0 -13 12v201q-200 -213 -481 -213 q-174 0 -322.5 86.5t-235.5 235t-87 323.5zM248 645q0 -131 64 -241.5t174 -175t241 -64.5q199 0 340 141t141 340t-141 340t-340 141q-131 0 -241 -64.5t-174 -175t-64 -241.5z" />
<glyph unicode="&#x153;" horiz-adv-x="1718" d="M82 430q0 178 125.5 304t302.5 126q108 0 198 -48t152 -132q61 83 152.5 131.5t195.5 48.5q178 0 303 -125.5t125 -304.5q0 -84 -16 -84h-664q23 -82 91.5 -132t160.5 -50q75 0 137.5 36t94.5 97q3 6 10 6q4 0 6 -2l119 -65q6 -3 6 -11q0 -4 -2 -6 q-57 -102 -153.5 -160.5t-217.5 -58.5q-224 0 -348 178q-57 -86 -147 -132t-203 -46q-177 0 -302.5 126t-125.5 304zM244 430q0 -110 78 -188t188 -78t188 78t78 188t-78 188t-188 78t-188 -78t-78 -188zM956 512h506q-27 83 -94.5 133.5t-159.5 50.5q-91 0 -160 -50.5 t-92 -133.5z" />
<glyph unicode="&#x178;" horiz-adv-x="987" d="M82 1278q0 12 12 12h160q4 0 10 -6l230 -412q41 77 120 217t109 195q3 6 10 6h160q12 0 12 -12q0 -4 -2 -6l-328 -588v-670q0 -12 -12 -12h-139q-12 0 -12 12v670q-55 98 -164.5 294t-163.5 294q-2 2 -2 6zM334 1321v96q0 13 12 13h96q13 0 13 -13v-96q0 -12 -13 -12h-96 q-12 0 -12 12zM532 1321v96q0 13 11 13h96q12 0 12 -13v-96q0 -12 -12 -12h-96q-11 0 -11 12z" />
<glyph unicode="&#x2c6;" horiz-adv-x="575" d="M82 1106q0 2 4 6l195 164q4 4 8 4q2 -2 8 -4l192 -164q5 -5 5 -6t-2 -4t-3 -6l-88 -107q-6 -6 -10 -6q-2 0 -6 4l-96 82q-25 -25 -60.5 -55.5t-44.5 -30.5q-2 0 -8 6l-90 107q-4 4 -4 10z" />
<glyph unicode="&#x2dc;" horiz-adv-x="931" d="M82 567q0 4 4 8q49 44 121.5 77.5t146.5 33.5q93 0 160 -51h-2q39 -25 74 -25q60 0 143 58l12 6q1 1 3.5 2t3.5 2q4 0 8 -4l90 -99q1 -2 2 -4.5t1.5 -3.5t0.5 -2q0 -29 -102 -69.5t-170 -40.5q-91 0 -158 51h2q-38 24 -74 24q-34 0 -72.5 -17t-56 -30t-24.5 -20 q-4 -4 -9 -4q-4 0 -8 4l-92 96q-4 4 -4 8z" />
<glyph unicode="&#x2000;" horiz-adv-x="833" />
<glyph unicode="&#x2001;" horiz-adv-x="1667" />
<glyph unicode="&#x2002;" horiz-adv-x="833" />
<glyph unicode="&#x2003;" horiz-adv-x="1667" />
<glyph unicode="&#x2004;" horiz-adv-x="555" />
<glyph unicode="&#x2005;" horiz-adv-x="416" />
<glyph unicode="&#x2006;" horiz-adv-x="277" />
<glyph unicode="&#x2007;" horiz-adv-x="277" />
<glyph unicode="&#x2008;" horiz-adv-x="208" />
<glyph unicode="&#x2009;" horiz-adv-x="333" />
<glyph unicode="&#x200a;" horiz-adv-x="92" />
<glyph unicode="&#x2010;" horiz-adv-x="978" d="M82 500v141q0 12 10 12h793q12 0 12 -12v-141q0 -13 -12 -13h-793q-10 0 -10 13z" />
<glyph unicode="&#x2011;" horiz-adv-x="978" d="M82 500v141q0 12 10 12h793q12 0 12 -12v-141q0 -13 -12 -13h-793q-10 0 -10 13z" />
<glyph unicode="&#x2012;" horiz-adv-x="978" d="M82 500v141q0 12 10 12h793q12 0 12 -12v-141q0 -13 -12 -13h-793q-10 0 -10 13z" />
<glyph unicode="&#x2013;" horiz-adv-x="978" d="M82 500v141q0 12 10 12h793q12 0 12 -12v-141q0 -13 -12 -13h-793q-10 0 -10 13z" />
<glyph unicode="&#x2014;" horiz-adv-x="1351" d="M82 500v141q0 12 12 12h1163q13 0 13 -12v-141q0 -13 -13 -13h-1163q-12 0 -12 13z" />
<glyph unicode="&#x2018;" horiz-adv-x="374" d="M133 1059q0 85 47 153t103 68q34 0 34 -20q0 -5 -15 -41t-15 -78q0 -23 6 -58v2q2 -2 2 -26q0 -32 -24 -57t-56 -25q-36 0 -59 24.5t-23 57.5z" />
<glyph unicode="&#x2019;" horiz-adv-x="376" d="M57 995q0 3 16.5 38t16.5 81q0 26 -6 60v-3q-2 2 -2 25q0 35 23.5 58.5t56.5 23.5q36 0 59 -23t23 -59q0 -82 -47.5 -151.5t-102.5 -69.5q-37 0 -37 20z" />
<glyph unicode="&#x201a;" horiz-adv-x="376" d="M57 -121q0 1 16.5 37.5t16.5 79.5q0 24 -6 59v-2q-2 2 -2 27q0 32 24 57t56 25q36 0 59 -24.5t23 -57.5q0 -85 -47 -153t-103 -68q-37 0 -37 20z" />
<glyph unicode="&#x201c;" horiz-adv-x="571" d="M133 1057q0 85 47 153t103 68q34 0 34 -21q0 -1 -16 -37.5t-16 -80.5q0 -28 6 -58v2q2 -2 2 -26q0 -33 -23 -57.5t-55 -24.5q-37 0 -59.5 24t-22.5 58zM330 1057q0 85 46.5 153t102.5 68q35 0 35 -21l-16 -37q-15 -38 -15 -83q0 -26 6 -56v2q3 -3 3 -26q0 -32 -24 -57 t-56 -25q-36 0 -59 24.5t-23 57.5z" />
<glyph unicode="&#x201d;" horiz-adv-x="573" d="M57 995q0 3 16.5 38t16.5 81q0 26 -6 60v-3q-2 2 -2 25q0 35 22.5 58.5t57.5 23.5q36 0 59 -23t23 -59q0 -82 -47.5 -151.5t-102.5 -69.5q-37 0 -37 20zM254 995q0 3 16.5 38t16.5 81q0 26 -6 60v-3q-2 2 -2 25q0 35 23 58.5t56 23.5q36 0 59 -23t23 -59 q0 -82 -47 -151.5t-102 -69.5q-37 0 -37 20z" />
<glyph unicode="&#x201e;" horiz-adv-x="573" d="M57 -121q0 1 16.5 37.5t16.5 79.5q0 24 -6 59v-2q-2 2 -2 27q0 33 23 57.5t57 24.5q36 0 59 -24.5t23 -57.5q0 -85 -47 -153t-103 -68q-37 0 -37 20zM254 -121q0 1 16.5 37.5t16.5 79.5q0 24 -6 59v-2q-2 2 -2 27q0 33 23.5 57.5t55.5 24.5q36 0 59 -24.5t23 -57.5 q0 -85 -46.5 -153t-102.5 -68q-37 0 -37 20z" />
<glyph unicode="&#x2022;" horiz-adv-x="516" d="M82 508q0 69 48.5 117.5t117.5 48.5q68 0 117 -48.5t49 -117.5q0 -67 -49 -115.5t-117 -48.5q-69 0 -117.5 48t-48.5 116z" />
<glyph unicode="&#x2026;" horiz-adv-x="753" d="M82 12v138q0 12 12 12h137q11 0 11 -12v-138q0 -12 -11 -12h-137q-12 0 -12 12zM297 12v138q0 12 12 12h137q11 0 11 -12v-138q0 -12 -11 -12h-137q-12 0 -12 12zM512 12v138q0 12 12 12h138q10 0 10 -12v-138q0 -12 -10 -12h-138q-12 0 -12 12z" />
<glyph unicode="&#x202f;" horiz-adv-x="333" />
<glyph unicode="&#x2039;" horiz-adv-x="557" d="M82 639q0 4 4 8l270 271q4 4 9 4q2 -2 8 -4l98 -97l4 -8q0 -4 -4 -8l-164 -166l164 -164q2 -2 2 -8q0 -4 -2 -6l-98 -101q-4 -4 -8 -4q-5 0 -9 4l-270 271q-4 4 -4 8z" />
<glyph unicode="&#x203a;" horiz-adv-x="559" d="M82 467q0 4 4 8l166 164l-166 166q-4 4 -4 8t4 8l100 97q2 2 7 2q6 0 8 -2l272 -271l4 -8q0 -4 -4 -8l-272 -271q-4 -4 -8 -4q-3 0 -7 4l-100 101q-4 4 -4 6z" />
<glyph unicode="&#x205f;" horiz-adv-x="416" />
<glyph unicode="&#x20ac;" horiz-adv-x="1310" d="M82 463v139q0 10 10 10h199v56h-199q-10 0 -10 12v141q0 10 10 10h225q62 198 231 323.5t382 125.5q58 0 161 -20t103 -43v-7l-55 -127q-3 -8 -11 -8h-6q-100 41 -192 41q-137 0 -257 -81.5t-179 -203.5h391q12 0 12 -10v-141q0 -12 -12 -12h-432v-56h432q12 0 12 -10 v-139q0 -12 -12 -12h-391q58 -126 176 -205.5t260 -79.5q120 0 219 51h8q4 0 8 -4l64 -123v-6q0 -6 -4 -10q-141 -72 -295 -72q-213 0 -382 125.5t-231 323.5h-225q-10 0 -10 12z" />
<glyph unicode="&#x2122;" horiz-adv-x="952" d="M82 1221v57q0 12 12 12h324q10 0 10 -8l168 -414q27 69 85.5 206.5t86.5 207.5q3 8 12 8h58q12 0 12 -12v-520q0 -13 -12 -13h-58q-12 0 -12 13v311q-6 -14 -41.5 -105.5t-63 -155t-36.5 -63.5h-62q-9 0 -12 9l-129 315v-311q0 -13 -12 -13h-58q-12 0 -12 13v450h-76 v-448q0 -12 -12 -12h-57q-13 0 -13 12v448h-90q-12 0 -12 13z" />
<glyph unicode="&#x25fc;" horiz-adv-x="860" d="M0 0v860h860v-860h-860z" />
<glyph unicode="&#xfb01;" horiz-adv-x="741" d="M82 709v141q0 12 12 12h127v64q0 122 75.5 219.5t211.5 134.5h4q10 0 10 -12v-148l-4 -8q-2 0 -4.5 -1t-4.5 -2t-3.5 -2l-1.5 -1l2 2q-39 -19 -61.5 -42t-49.5 -65l2 3q-16 -50 -16 -78v-64h266q12 0 12 -12v-836q0 -12 -12 -12h-137q-12 0 -12 12v682h-117v-682 q0 -12 -10 -12h-138q-12 0 -12 12v682h-127q-12 0 -12 13z" />
<glyph unicode="&#xfb02;" horiz-adv-x="743" d="M82 709v141q0 12 12 12h127v64q0 122 75.5 219.5t211.5 134.5h141q13 0 13 -12v-1254q0 -12 -13 -12h-139q-12 0 -12 12v682h-117v-682q0 -12 -10 -12h-138q-12 0 -12 12v682h-127q-12 0 -12 13zM381 862h117v242q-40 -26 -59.5 -45.5t-43.5 -57.5l2 3q-16 -50 -16 -78 v-64zM498 1104q0 2 2 2q4 0 6 2l-2 -2l2 1q1 1 3 2t4.5 2t4.5 1l-20 8v-16z" />
</font>
</defs>
</svg>
